<?xml version="1.0" encoding="UTF-8" standalone="no"?>
<!-- Created with Inkscape (http://www.inkscape.org/) -->

<svg
   xmlns:dc="http://purl.org/dc/elements/1.1/"
   xmlns:cc="http://creativecommons.org/ns#"
   xmlns:rdf="http://www.w3.org/1999/02/22-rdf-syntax-ns#"
   xmlns:svg="http://www.w3.org/2000/svg"
   xmlns="http://www.w3.org/2000/svg"
   version="1.1"
   width="400"
   height="400"
   id="svg2">
  <defs
     id="defs4" />
  <metadata
     id="metadata7">
    <rdf:RDF>
      <cc:Work
         rdf:about="">
        <dc:format>image/svg+xml</dc:format>
        <dc:type
           rdf:resource="http://purl.org/dc/dcmitype/StillImage" />
        <dc:title></dc:title>
      </cc:Work>
    </rdf:RDF>
  </metadata>
  <g
     transform="translate(-95,-209.86218)"
     id="layer2" />
  <g
     transform="translate(-95,-209.86218)"
     id="layer1">
    <path
       d="m 510.12704,434.14883 a 197.9899,201.02036 0 1 1 -395.97979,0 197.9899,201.02036 0 1 1 395.97979,0 z"
       transform="matrix(0.99518728,0,0,0.98018446,-15.634916,-15.683759)"
       id="path3790"
       style="fill:#f3ebd6;fill-opacity:1;fill-rule:nonzero;stroke:#5c1201;stroke-width:6;stroke-miterlimit:4;stroke-opacity:1;stroke-dasharray:none" />
    <path
       d="m 304.51957,275.36234 -133.52247,49.83573 -0.49694,137.29997 113.45838,81.86399 134.51635,-51.37737 1.02495,-136.76511 -114.98027,-80.85721 z m 1.52189,12.71063 96.37596,68.64998 -96.37596,35.58346 0,-104.23344 z m -9.96992,1.38433 0.0931,107.50548 -10.71534,4.49906 -98.6122,-71.8591 109.23437,-40.14544 z m -115.53933,48.4514 96.87289,72.45688 0.031,4.81368 -97.4009,37.1251 0.49695,-114.39566 z m 226.38876,28.97646 0,105.86947 -100.38257,-68.24098 100.38257,-37.62849 z m -101.8734,47.28731 101.0348,70.19161 -115.91203,44.01528 -0.18636,-108.60666 15.06359,-5.60023 z m -27.61141,10.16221 0,101.2131 -91.87241,-65.59816 91.87241,-35.61494 z"
       id="path3952"
       style="fill:#5c1201;fill-opacity:1;stroke:#000000;stroke-width:1.00031388px;stroke-linecap:butt;stroke-linejoin:miter;stroke-opacity:1" />
  </g>
</svg>
