<?xml version="1.0" encoding="UTF-8" standalone="no"?>
<!-- Created with Inkscape (http://www.inkscape.org/) -->

<svg
   xmlns:dc="http://purl.org/dc/elements/1.1/"
   xmlns:cc="http://creativecommons.org/ns#"
   xmlns:rdf="http://www.w3.org/1999/02/22-rdf-syntax-ns#"
   xmlns:svg="http://www.w3.org/2000/svg"
   xmlns="http://www.w3.org/2000/svg"
   version="1.1"
   width="400"
   height="400"
   id="svg2">
  <defs
     id="defs4" />
  <metadata
     id="metadata7">
    <rdf:RDF>
      <cc:Work
         rdf:about="">
        <dc:format>image/svg+xml</dc:format>
        <dc:type
           rdf:resource="http://purl.org/dc/dcmitype/StillImage" />
        <dc:title></dc:title>
      </cc:Work>
    </rdf:RDF>
  </metadata>
  <g
     transform="translate(-95,-209.86218)"
     id="layer2" />
  <g
     transform="translate(-95,-209.86218)"
     id="layer1">
    <path
       d="m 510.12704,434.14883 a 197.9899,201.02036 0 1 1 -395.97979,0 197.9899,201.02036 0 1 1 395.97979,0 z"
       transform="matrix(0.99518728,0,0,0.98018446,-15.634916,-15.683759)"
       id="path3790"
       style="fill:#f3ebd6;fill-opacity:1;fill-rule:nonzero;stroke:#5c1201;stroke-width:6;stroke-miterlimit:4;stroke-opacity:1;stroke-dasharray:none" />
    <path
       d="m 353.50181,297.3622 c -4.63559,0.68401 -11.46378,11.65567 -11.26082,16.23174 0.008,0.0604 -0.009,0.099 0,0.15649 -0.0203,0.26957 0,0.55978 0,0.83507 0,5.41613 4.03331,9.75992 9.00865,9.75992 4.97534,0 9.00866,-4.34379 9.00866,-9.75992 0,-0.27529 -0.0391,-0.5655 -0.0592,-0.83507 0.006,-0.036 -0.004,-0.0151 0,-0.0521 -0.002,-0.0202 0.002,-0.0841 0,-0.10438 0.23646,-2.2325 -0.29653,-4.98032 -4.80067,-7.09812 -3.25292,-1.52947 -1.89656,-9.13362 -1.89656,-9.13362 z m -2.07437,27.714 c -2.77536,0 -5.54586,1.34107 -6.46015,4.12317 -1.82904,5.5643 -3.66588,39.89499 -1.83729,45.4593 1.82858,5.56426 14.64779,5.56426 16.47636,0 1.8286,-5.56431 0.10981,-39.895 -1.71876,-45.4593 -0.91429,-2.7821 -3.68479,-4.12317 -6.46016,-4.12317 z m -51.2071,11.37787 c -1.28941,-0.002 -2.56612,0.0257 -3.85238,0.0521 -42.72167,0.87945 -83.56132,17.00744 -107.27414,45.77246 -34.63655,42.01616 -20.68419,96.5293 29.98935,127.97499 3.82968,2.77892 8.12266,5.15232 12.74251,7.04592 0.90384,0.44138 1.80414,0.87687 2.7263,1.30481 l 0.17771,-0.20877 c 7.1761,2.54984 15.09156,3.9666 23.41065,3.9666 27.98204,0 51.41066,-15.97803 57.43019,-37.42172 9.95041,-0.70846 19.52617,-2.2177 28.56692,-4.38414 l 0,22.65137 c 0,2.5703 2.35606,4.64509 5.27481,4.64509 l 4.80066,0 c 2.91875,0 5.27481,-2.07479 5.27481,-4.64509 l 0,-26.98332 c 0,-0.0529 0.002,-0.10404 0,-0.15649 36.09772,-12.65529 60.51209,-36.87937 60.51209,-64.66598 0,-26.99064 -23.02349,-50.60293 -57.43018,-63.51777 l 0,81.83718 c 0,2.57031 -2.35606,4.6451 -5.27481,4.6451 l -11.26082,0 c -2.91875,0 -5.27481,-2.07479 -5.27481,-4.6451 l 0,-88.46558 c -13.32873,-3.16095 -27.01231,-4.78544 -40.53895,-4.80167 z m 8.06038,9.65553 c 10.10032,0 18.25438,7.77439 18.25438,17.32778 0,9.55339 -8.15406,17.27557 -18.25438,17.27557 -10.10032,0 -18.31365,-7.72218 -18.31365,-17.27557 0,-9.55339 8.21333,-17.32778 18.31365,-17.32778 z m -50.19955,1.357 c 10.10031,0 18.31365,7.77437 18.31365,17.32777 0,9.55339 -8.21334,17.27559 -18.31365,17.27559 -10.10032,0 -18.25439,-7.7222 -18.25439,-17.27559 0,-9.5534 8.15407,-17.32777 18.25439,-17.32777 z m -43.32453,26.9833 c 10.10032,0 18.31365,7.7222 18.31365,17.27559 0,9.55339 -8.21333,17.32776 -18.31365,17.32776 -10.10031,0 -18.25438,-7.77437 -18.25438,-17.32776 0,-9.55339 8.15407,-17.27559 18.25438,-17.27559 z m 132.40355,4.95825 c -2.70569,0 -4.85994,2.53494 -4.85994,5.74114 l 0,41.80585 c 0,3.2062 2.15425,5.84551 4.85994,5.84551 l 8.29744,0 c 2.70569,0 4.85994,-2.63931 4.85994,-5.84551 l 0,-41.80585 c 0,-3.2062 -2.15425,-5.74114 -4.85994,-5.74114 l -8.29744,0 z m -145.91653,41.96244 c 10.10031,0 18.25438,7.77438 18.25438,17.32777 0,9.55339 -8.15407,17.27557 -18.25438,17.27557 -10.10032,0 -18.31365,-7.72218 -18.31365,-17.27557 0,-9.55339 8.21333,-17.32777 18.31365,-17.32777 z m 29.81154,41.33613 c 10.10031,0 18.25438,7.77437 18.25438,17.32776 0,9.5534 -8.15407,17.2756 -18.25438,17.2756 -10.10032,0 -18.31365,-7.7222 -18.31365,-17.2756 0,-9.55339 8.21333,-17.32776 18.31365,-17.32776 z"
       id="path4013"
       style="fill:#5c1201;fill-opacity:1;fill-rule:nonzero;stroke:none" />
  </g>
</svg>
