<?xml version="1.0" encoding="UTF-8" standalone="no"?>
<!-- Created with Inkscape (http://www.inkscape.org/) -->

<svg
   xmlns:dc="http://purl.org/dc/elements/1.1/"
   xmlns:cc="http://creativecommons.org/ns#"
   xmlns:rdf="http://www.w3.org/1999/02/22-rdf-syntax-ns#"
   xmlns:svg="http://www.w3.org/2000/svg"
   xmlns="http://www.w3.org/2000/svg"
   version="1.1"
   width="400"
   height="400"
   id="svg2">
  <defs
     id="defs4" />
  <metadata
     id="metadata7">
    <rdf:RDF>
      <cc:Work
         rdf:about="">
        <dc:format>image/svg+xml</dc:format>
        <dc:type
           rdf:resource="http://purl.org/dc/dcmitype/StillImage" />
        <dc:title></dc:title>
      </cc:Work>
    </rdf:RDF>
  </metadata>
  <g
     transform="translate(-95,-209.86218)"
     id="layer2" />
  <g
     transform="translate(-95,-209.86218)"
     id="layer1">
    <path
       d="m 510.12704,434.14883 a 197.9899,201.02036 0 1 1 -395.97979,0 197.9899,201.02036 0 1 1 395.97979,0 z"
       transform="matrix(0.99518728,0,0,0.98018446,-15.634916,-15.683759)"
       id="path3790"
       style="fill:#f3ebd6;fill-opacity:1;fill-rule:nonzero;stroke:#5c1201;stroke-width:6;stroke-miterlimit:4;stroke-opacity:1;stroke-dasharray:none" />
    <path
       d="m 298.20781,284.86216 -33.37831,0.18832 1.19658,13.40239 c 0,0 -2.80313,5.37343 -8.47054,8.81984 0,0 -10.22794,6.73048 -14.04408,10.92278 0,0 -11.23646,5.06734 -13.4458,11.86441 0,0 -3.44217,2.19815 -0.94467,26.99309 l 12.2807,35.81294 c 0,0 5.97775,4.06166 17.69681,-2.44821 0,0 2.98224,3.71004 1.63743,14.78342 0,0 -21.51188,43.7752 -21.444,58.60013 0,0 -2.29727,9.15247 -3.08592,16.79221 l 0.22043,-1.09855 c 53.19155,-3.4033 117.19163,-19.5121 117.35942,-19.5543 -0.0275,-0.36642 -2.11853,-27.99662 -6.92757,-49.65474 0,0 3.26044,-28.31554 0.40935,-63.59071 l 1.7319,-10.8914 1.32253,-0.37665 c 0,0 5.40617,-20.45722 -3.05443,-32.95668 0,0 -5.66488,-6.1997 -28.24561,-2.66793 0,0 0.9921,1.47469 -20.12146,-6.84243 l -0.69276,-8.09793 z m 55.57805,175.07847 c -0.003,9e-4 -0.31225,0.11371 -0.34638,0.12555 0,0 -0.0616,0.0309 -0.063,0.0314 -0.36841,0.13208 -47.29594,17.04036 -64.70985,72.34778 l -2.48763,-0.18833 c 9.71849,-27.9971 29.55256,-57.89556 58.47504,-69.36597 -18.91107,5.76811 -64.36163,18.04761 -108.47954,17.95354 -0.005,0.0519 -0.0265,0.10516 -0.0314,0.15694 0,0 -2.56848,-0.0275 -3.52677,0.69052 0,0 -1.42599,3.72287 -2.55061,6.74827 0,0 -3.20992,3.06822 -4.53441,7.06215 l 3.40081,4.73949 0,-0.15694 71.85785,-1.53798 -3.27485,5.36723 -68.583,-1.34965 0,-2.32266 c 0,0 -0.83979,4.05176 0.31489,9.19648 0,0 -4.08993,6.57001 -3.27485,9.88701 0,0 0.68511,5.34826 10.73774,6.90521 0,0 -1.75617,4.90835 -0.12596,8.63151 l 128.53801,-5.6811 -3.84165,-21.81419 2.29869,-9.82423 -0.97616,3.23289 -18.73594,-0.40803 19.90104,-3.64093 0.22042,-0.84746 1.54296,-13.81042 -3.74719,-1.7263 0.37787,-8.94539 c 0,0 -3.99975,-3.30022 -4.91228,-10.67169 l -3.46379,-0.65913 c 0,0 1.8e-4,-0.12311 0,-0.12555 z"
       id="path4203"
       style="fill:#5c1201;fill-opacity:1;stroke:none" />
  </g>
</svg>
