<?xml version="1.0" encoding="UTF-8" standalone="no"?>
<svg
   xmlns:dc="http://purl.org/dc/elements/1.1/"
   xmlns:cc="http://creativecommons.org/ns#"
   xmlns:rdf="http://www.w3.org/1999/02/22-rdf-syntax-ns#"
   xmlns:svg="http://www.w3.org/2000/svg"
   xmlns="http://www.w3.org/2000/svg"
   xmlns:sodipodi="http://sodipodi.sourceforge.net/DTD/sodipodi-0.dtd"
   xmlns:inkscape="http://www.inkscape.org/namespaces/inkscape"
   version="1.1"
   x="0px"
   y="0px"
   viewBox="0 0 104.01843 104.00001"
   enable-background="new 0 0 100 100"
   xml:space="preserve"
   id="svg6643"
   inkscape:version="0.48.5 r10040"
   width="100%"
   height="100%"
   sodipodi:docname="AssistantYellow.svg"><metadata
     id="metadata6651"><rdf:RDF><cc:Work
         rdf:about=""><dc:format>image/svg+xml</dc:format><dc:type
           rdf:resource="http://purl.org/dc/dcmitype/StillImage" /><dc:title></dc:title></cc:Work></rdf:RDF></metadata><defs
     id="defs6649" /><sodipodi:namedview
     pagecolor="#ffffff"
     bordercolor="#666666"
     borderopacity="1"
     objecttolerance="10"
     gridtolerance="10"
     guidetolerance="10"
     inkscape:pageopacity="0"
     inkscape:pageshadow="2"
     inkscape:window-width="1170"
     inkscape:window-height="697"
     id="namedview6647"
     showgrid="false"
     inkscape:zoom="2.36"
     inkscape:cx="-80.194192"
     inkscape:cy="61.745763"
     inkscape:window-x="527"
     inkscape:window-y="134"
     inkscape:window-maximized="0"
     inkscape:current-layer="svg6643"
     fit-margin-top="0"
     fit-margin-left="0"
     fit-margin-right="0"
     fit-margin-bottom="0" /><path
     clip-rule="evenodd"
     d="m 102.0012,45.019009 c 0.578,-13.757 -32.354002,-20.455 -33.781002,-22.023 -0.711,-0.78 1.65,-21.0110003 -16.211,-20.9960003 -17.861,-0.015 -15.501,20.2160003 -16.212,20.9960003 -1.427,1.568 -34.3569998,8.266 -33.7799998,22.023 0.576,13.758 18.0509998,6.692 21.7779998,10.741 3.26,3.544 -15.2789998,26.229 -17.3529998,40.634 -0.676,4.695001 0.644,5.606001 5.2069998,5.606001 8.276,0 16.177,-0.005 23.453,-0.005 3.287,0 4.456,-1.889 6.152,-4.492001 3.754,-5.762 8.288,-15.024 10.755,-15.023 2.466,-10e-4 7.001,9.261 10.755,15.022 1.696,2.604001 2.864,4.492001 6.151,4.492001 7.275,0 15.177,0.005 23.453,0.005 4.563,0 5.884,-0.911 5.207,-5.606001 -2.073,-14.405 -20.611,-37.09 -17.353,-40.634 3.727,-4.048 21.204002,3.018 21.779002,-10.74 z"
     id="path6645"
     style="fill:#663399;fill-opacity:1;fill-rule:evenodd;stroke:#5c1201;stroke-width:4;stroke-miterlimit:4;stroke-opacity:1;stroke-dasharray:none"
     inkscape:connector-curvature="0" /></svg>