<?xml version="1.0" encoding="UTF-8" standalone="no"?>
<!-- Created with Inkscape (http://www.inkscape.org/) -->

<svg
   xmlns:dc="http://purl.org/dc/elements/1.1/"
   xmlns:cc="http://creativecommons.org/ns#"
   xmlns:rdf="http://www.w3.org/1999/02/22-rdf-syntax-ns#"
   xmlns:svg="http://www.w3.org/2000/svg"
   xmlns="http://www.w3.org/2000/svg"
   xmlns:sodipodi="http://sodipodi.sourceforge.net/DTD/sodipodi-0.dtd"
   xmlns:inkscape="http://www.inkscape.org/namespaces/inkscape"
   width="203.42757"
   height="190.82729"
   id="svg2"
   version="1.1"
   inkscape:version="0.48.5 r10040"
   sodipodi:docname="BonusMoney.svg">
  <defs
     id="defs4">
    <inkscape:perspective
       sodipodi:type="inkscape:persp3d"
       inkscape:vp_x="145.46197 : 276.67341 : 1"
       inkscape:vp_y="0 : 1000 : 0"
       inkscape:vp_z="637.01831 : 307.98814 : 1"
       inkscape:persp3d-origin="264.97107 : 132.59444 : 1"
       id="perspective3869" />
  </defs>
  <sodipodi:namedview
     id="base"
     pagecolor="#ffffff"
     bordercolor="#666666"
     borderopacity="1.0"
     inkscape:pageopacity="0.0"
     inkscape:pageshadow="2"
     inkscape:zoom="0.7"
     inkscape:cx="346.26728"
     inkscape:cy="83.160894"
     inkscape:document-units="px"
     inkscape:current-layer="layer1"
     showgrid="false"
     inkscape:window-width="708"
     inkscape:window-height="494"
     inkscape:window-x="254"
     inkscape:window-y="306"
     inkscape:window-maximized="0"
     fit-margin-top="0"
     fit-margin-left="0"
     fit-margin-right="0"
     fit-margin-bottom="0" />
  <metadata
     id="metadata7">
    <rdf:RDF>
      <cc:Work
         rdf:about="">
        <dc:format>image/svg+xml</dc:format>
        <dc:type
           rdf:resource="http://purl.org/dc/dcmitype/StillImage" />
        <dc:title />
      </cc:Work>
    </rdf:RDF>
  </metadata>
  <g
     inkscape:groupmode="layer"
     id="layer2"
     inkscape:label="Layer"
     transform="translate(-226.14336,-412.5349)">
    <flowRoot
       xml:space="preserve"
       id="flowRoot4350"
       style="font-size:40px;font-style:normal;font-weight:normal;line-height:125%;letter-spacing:0px;word-spacing:0px;fill:#000000;fill-opacity:1;stroke:none;font-family:Sans"><flowRegion
         id="flowRegion4352"><rect
           id="rect4354"
           width="105.71429"
           height="102.85714"
           x="325.71429"
           y="52.362183" /></flowRegion><flowPara
         id="flowPara4356" /></flowRoot>  </g>
  <g
     inkscape:label="Layer 1"
     inkscape:groupmode="layer"
     id="layer1"
     style="display:inline"
     transform="translate(-226.14336,-412.5349)">
    <g
       id="g4371"
       transform="matrix(0.4,0,0,0.4,161.57487,339.18427)">
      <path
         transform="matrix(1.0800781,0,0,1.0972222,71.623653,54.187374)"
         d="m 501.42859,309.50504 c 0,99.41125 -81.86793,180 -182.85715,180 -100.98921,0 -182.85715,-80.58875 -182.85715,-180 0,-99.41126 81.86794,-180 182.85715,-180 100.98922,0 182.85715,80.58874 182.85715,180 z"
         sodipodi:ry="180"
         sodipodi:rx="182.85715"
         sodipodi:cy="309.50504"
         sodipodi:cx="318.57144"
         id="path4358"
         style="fill:#ffffff;fill-opacity:1;fill-rule:nonzero;stroke:none"
         sodipodi:type="arc" />
      <path
         sodipodi:nodetypes="ssssssssss"
         inkscape:connector-curvature="0"
         id="path4336"
         d="m 415.70569,183.37657 c -115.26022,0 -209.6091,93.88515 -209.6091,210.42287 0,116.53772 94.34888,210.39033 209.6091,210.39033 115.26022,0 209.6091,-93.85261 209.6091,-210.39033 0,-116.53772 -94.34888,-210.42287 -209.6091,-210.42287 z m 0,20.81785 c 105.65369,0 190.39518,85.22884 190.39518,189.60502 0,104.37617 -84.74149,181.03359 -190.39518,181.03359 -105.65369,0 -190.36512,-76.65742 -190.36512,-181.03359 0,-104.37618 84.71143,-189.60502 190.36512,-189.60502 z"
         style="font-size:medium;font-style:normal;font-variant:normal;font-weight:normal;font-stretch:normal;text-indent:0;text-align:start;text-decoration:none;line-height:normal;letter-spacing:normal;word-spacing:normal;text-transform:none;direction:ltr;block-progression:tb;writing-mode:lr-tb;text-anchor:start;baseline-shift:baseline;color:#000000;fill:#5c1201;fill-opacity:1;fill-rule:nonzero;stroke:none;stroke-width:19.98456001;marker:none;visibility:visible;display:inline;overflow:visible;enable-background:accumulate;font-family:Sans;-inkscape-font-specification:Sans" />
      <path
         transform="matrix(1.4497041,0,0,1.3461538,-208.70259,-133.55049)"
         d="m 551.42858,389.50504 c 0,71.79701 -54.04563,130 -120.71429,130 -66.66866,0 -120.71428,-58.20299 -120.71428,-130 0,-71.79702 54.04562,-130 120.71428,-130 66.66866,0 120.71429,58.20298 120.71429,130 z"
         sodipodi:ry="130"
         sodipodi:rx="120.71429"
         sodipodi:cy="389.50504"
         sodipodi:cx="430.71429"
         id="path4340"
         style="fill:#a76f37;fill-opacity:1;fill-rule:nonzero;stroke:none"
         sodipodi:type="arc" />
      <path
         sodipodi:nodetypes="scscs"
         inkscape:connector-curvature="0"
         id="path4342"
         d="m 520.59,281.40818 c 84.95483,88.66137 20.94312,202.34456 20.94312,202.34456 0,0 78.58812,-109.3753 -15.74313,-207.49067 -111.83892,-116.32537 -234.16802,12.70254 -234.16802,12.70254 0,0 127.17754,-113.78799 228.96803,-7.55643 z"
         style="font-size:medium;font-style:normal;font-variant:normal;font-weight:normal;font-stretch:normal;text-indent:0;text-align:start;text-decoration:none;line-height:normal;letter-spacing:normal;word-spacing:normal;text-transform:none;direction:ltr;block-progression:tb;writing-mode:lr-tb;text-anchor:start;baseline-shift:baseline;color:#000000;fill:#eae7c8;fill-opacity:1;fill-rule:nonzero;stroke:none;stroke-width:3.31160808;marker:none;visibility:visible;display:inline;overflow:visible;enable-background:accumulate;font-family:Sans;-inkscape-font-specification:Sans" />
      <text
         transform="scale(0.98365684,1.0166147)"
         sodipodi:linespacing="125%"
         id="text4346"
         y="466.63297"
         x="358.95599"
         style="font-size:233.63537598px;font-style:normal;font-weight:normal;line-height:125%;letter-spacing:0px;word-spacing:0px;fill:#ffffff;fill-opacity:1;stroke:none;font-family:Sans"
         xml:space="preserve"><tspan
           y="466.63297"
           x="358.95599"
           id="tspan4348"
           sodipodi:role="line">$</tspan></text>
    </g>
    <path
       inkscape:connector-curvature="0"
       clip-rule="evenodd"
       d="m 327.13485,545.38118 c 0.578,-13.757 -32.354,-20.455 -33.781,-22.023 -0.711,-0.78 1.65,-21.011 -16.211,-20.996 -17.861,-0.015 -15.501,20.216 -16.212,20.996 -1.427,1.568 -34.357,8.266 -33.78,22.023 0.576,13.758 18.051,6.692 21.778,10.741 3.26,3.544 -15.279,26.229 -17.353,40.634 -0.676,4.695 0.644,5.606 5.207,5.606 8.276,0 16.177,-0.005 23.453,-0.005 3.287,0 4.456,-1.889 6.152,-4.492 3.754,-5.762 8.288,-15.024 10.755,-15.023 2.466,-10e-4 7.001,9.261 10.755,15.022 1.696,2.604 2.864,4.492 6.151,4.492 7.275,0 15.177,0.005 23.453,0.005 4.563,0 5.884,-0.911 5.207,-5.606 -2.073,-14.405 -20.611,-37.09 -17.353,-40.634 3.727,-4.048 21.204,3.018 21.779,-10.74 z"
       id="path6645"
       style="fill:#a76f37;fill-opacity:1;fill-rule:evenodd;stroke:#5c1201;stroke-width:2;stroke-miterlimit:4;stroke-opacity:1;stroke-dasharray:none" />
    <path
       inkscape:connector-curvature="0"
       clip-rule="evenodd"
       d="m 428.56341,545.38118 c 0.578,-13.757 -32.35399,-20.455 -33.78099,-22.023 -0.711,-0.78 1.65,-21.011 -16.211,-20.996 -17.861,-0.015 -15.501,20.216 -16.212,20.996 -1.427,1.568 -34.357,8.266 -33.78,22.023 0.576,13.758 18.051,6.692 21.778,10.741 3.26,3.544 -15.279,26.229 -17.353,40.634 -0.676,4.695 0.644,5.606 5.207,5.606 8.276,0 16.177,-0.005 23.453,-0.005 3.287,0 4.456,-1.889 6.152,-4.492 3.754,-5.762 8.288,-15.024 10.755,-15.023 2.466,-10e-4 7.001,9.261 10.755,15.022 1.696,2.604 2.864,4.492 6.151,4.492 7.275,0 15.177,0.005 23.453,0.005 4.563,0 5.884,-0.911 5.207,-5.606 -2.073,-14.405 -20.611,-37.09 -17.353,-40.634 3.727,-4.048 21.20399,3.018 21.77899,-10.74 z"
       id="path6645-1"
       style="fill:#ffffff;fill-opacity:1;fill-rule:evenodd;stroke:#5c1201;stroke-width:2;stroke-miterlimit:4;stroke-opacity:1;stroke-dasharray:none" />
    <text
       xml:space="preserve"
       style="font-size:40px;font-style:normal;font-weight:normal;line-height:125%;letter-spacing:0px;word-spacing:0px;fill:#ffffff;fill-opacity:1;stroke:none;font-family:Sans"
       x="256.92801"
       y="566.73718"
       id="text3054"
       sodipodi:linespacing="125%"><tspan
         sodipodi:role="line"
         id="tspan3056"
         x="256.92801"
         y="566.73718">x2</tspan></text>
    <text
       xml:space="preserve"
       style="font-size:40px;font-style:normal;font-weight:normal;line-height:125%;letter-spacing:0px;word-spacing:0px;fill:#5c1201;fill-opacity:1;stroke:none;font-family:Sans"
       x="360.97379"
       y="568.16577"
       id="text3058"
       sodipodi:linespacing="125%"><tspan
         sodipodi:role="line"
         id="tspan3060"
         x="360.97379"
         y="568.16577">x1</tspan></text>
  </g>
</svg>
