<?xml version="1.0" encoding="UTF-8" standalone="no"?>
<!-- Created with Inkscape (http://www.inkscape.org/) -->

<svg
   xmlns:dc="http://purl.org/dc/elements/1.1/"
   xmlns:cc="http://creativecommons.org/ns#"
   xmlns:rdf="http://www.w3.org/1999/02/22-rdf-syntax-ns#"
   xmlns:svg="http://www.w3.org/2000/svg"
   xmlns="http://www.w3.org/2000/svg"
   xmlns:xlink="http://www.w3.org/1999/xlink"
   xmlns:sodipodi="http://sodipodi.sourceforge.net/DTD/sodipodi-0.dtd"
   xmlns:inkscape="http://www.inkscape.org/namespaces/inkscape"
   version="1.1"
   width="100%"
   height="100%"
   viewBox="0 0 102.01669 146.40626"
   id="svg6643"
   xml:space="preserve"
   inkscape:version="0.48.5 r10040"
   sodipodi:docname="BonusVisitorPlazaAny.svg"><sodipodi:namedview
     pagecolor="#ffffff"
     bordercolor="#666666"
     borderopacity="1"
     objecttolerance="10"
     gridtolerance="10"
     guidetolerance="10"
     inkscape:pageopacity="0"
     inkscape:pageshadow="2"
     inkscape:window-width="816"
     inkscape:window-height="688"
     id="namedview3923"
     showgrid="false"
     fit-margin-top="0"
     fit-margin-left="0"
     fit-margin-right="0"
     fit-margin-bottom="0"
     inkscape:zoom="2.36"
     inkscape:cx="43.593075"
     inkscape:cy="74.855403"
     inkscape:window-x="1039"
     inkscape:window-y="234"
     inkscape:window-maximized="0"
     inkscape:current-layer="svg6643" /><metadata
     id="metadata6651"><rdf:RDF><cc:Work
         rdf:about=""><dc:format>image/svg+xml</dc:format><dc:type
           rdf:resource="http://purl.org/dc/dcmitype/StillImage" /><dc:title></dc:title></cc:Work></rdf:RDF></metadata><defs
     id="defs6649"><linearGradient
       id="linearGradient7161"><stop
         id="stop7163"
         style="stop-color:#a76f37;stop-opacity:1"
         offset="0" /><stop
         id="stop7169"
         style="stop-color:#a76f37;stop-opacity:1"
         offset="0.34" /><stop
         id="stop7171"
         style="stop-color:#ffffff;stop-opacity:1"
         offset="0.34" /><stop
         id="stop7173"
         style="stop-color:#ffffff;stop-opacity:1"
         offset="0.67000002" /><stop
         id="stop7175"
         style="stop-color:#e63f7d;stop-opacity:1"
         offset="0.67000002" /><stop
         id="stop7165"
         style="stop-color:#e63f7d;stop-opacity:1"
         offset="1" /></linearGradient><linearGradient
       x1="-0.99949408"
       y1="49.999996"
       x2="100.99952"
       y2="49.999996"
       id="linearGradient7167"
       xlink:href="#linearGradient7161"
       gradientUnits="userSpaceOnUse" /><linearGradient
       inkscape:collect="always"
       xlink:href="#linearGradient7161"
       id="linearGradient4466"
       gradientUnits="userSpaceOnUse"
       x1="-0.99949408"
       y1="49.999996"
       x2="100.99952"
       y2="49.999996" /><linearGradient
       inkscape:collect="always"
       xlink:href="#linearGradient7161"
       id="linearGradient4473"
       gradientUnits="userSpaceOnUse"
       x1="-0.99949408"
       y1="49.999996"
       x2="100.99952"
       y2="49.999996" /><linearGradient
       inkscape:collect="always"
       xlink:href="#linearGradient7161"
       id="linearGradient4482"
       gradientUnits="userSpaceOnUse"
       x1="-0.99949408"
       y1="49.999996"
       x2="100.99952"
       y2="49.999996" /></defs><g
     id="g4475"
     transform="translate(1.008329,1.0000085)"><path
       style="fill:url(#linearGradient4482);fill-opacity:1;fill-rule:evenodd;stroke:#5c1201;stroke-width:2;stroke-miterlimit:4;stroke-opacity:1;stroke-dasharray:none"
       id="path6645"
       d="M 99.992,43.019 C 100.57,29.262 67.638,22.564 66.211,20.996 65.5,20.216 67.861,-0.015 50,0 32.139,-0.015 34.499,20.216 33.788,20.996 32.361,22.564 -0.569,29.262 0.008,43.019 0.584,56.777 18.059,49.711 21.786,53.76 25.046,57.304 6.507,79.989 4.433,94.394 3.757,99.089 5.077,100 9.64,100 c 8.276,0 16.177,-0.005 23.453,-0.005 3.287,0 4.456,-1.889 6.152,-4.492 C 42.999,89.741 47.533,80.479 50,80.48 c 2.466,-0.001 7.001,9.261 10.755,15.022 1.696,2.604 2.864,4.492 6.151,4.492 7.275,0 15.177,0.005 23.453,0.005 4.563,0 5.884,-0.911 5.207,-5.606 C 93.493,79.988 74.955,57.303 78.213,53.759 81.94,49.711 99.417,56.777 99.992,43.019 z"
       inkscape:connector-curvature="0" /><rect
       ry="0"
       y="118.64407"
       x="2.1186442"
       height="26.032188"
       width="96.520721"
       id="rect4437"
       style="fill:#0a0a0a;fill-opacity:1;fill-rule:nonzero;stroke:#000000;stroke-width:1.4429543;stroke-linecap:round;stroke-linejoin:miter;stroke-miterlimit:4;stroke-opacity:1;stroke-dasharray:none" /><g
       id="g4442"><path
         sodipodi:type="arc"
         style="fill:#0a0a0a;fill-opacity:1;fill-rule:nonzero;stroke:#000000;stroke-width:1.71500814;stroke-linecap:round;stroke-linejoin:miter;stroke-miterlimit:4;stroke-opacity:1;stroke-dasharray:none"
         id="path3925"
         sodipodi:cx="-20.550848"
         sodipodi:cy="71.610168"
         sodipodi:rx="34.957626"
         sodipodi:ry="16.949152"
         d="m 14.406778,71.610168 c 0,9.360759 -15.6510621,16.949152 -34.957626,16.949152 -19.306564,0 -34.957626,-7.588393 -34.957626,-16.949152 0,-9.360758 15.651062,-16.949152 34.957626,-16.949152 19.3065639,0 34.957626,7.588394 34.957626,16.949152 z"
         transform="matrix(1.3802635,0,0,0.827712,78.98423,59.242972)" /><path
         sodipodi:type="star"
         style="fill:#787878;fill-opacity:1;fill-rule:nonzero;stroke:#000000;stroke-width:2;stroke-linecap:round;stroke-linejoin:miter;stroke-miterlimit:4;stroke-opacity:1;stroke-dasharray:none"
         id="path4435"
         sodipodi:sides="3"
         sodipodi:cx="-38.983051"
         sodipodi:cy="-5.9322033"
         sodipodi:r1="13.664844"
         sodipodi:r2="5.3788128"
         sodipodi:arg1="0.51914612"
         sodipodi:arg2="1.5518662"
         inkscape:flatsided="true"
         inkscape:rounded="0"
         inkscape:randomized="0"
         d="M -27.118645,0.84745775 -50.786613,0.95284376 -39.043896,-19.596911 z"
         inkscape:transform-center-x="-0.42967647"
         inkscape:transform-center-y="-3.6537677"
         transform="matrix(1.9954539,0,0,0.96244925,129.39618,125.32411)" /></g></g></svg>