<?xml version="1.0" encoding="UTF-8" standalone="no"?>
<!-- Created with Inkscape (http://www.inkscape.org/) -->

<svg
   xmlns:dc="http://purl.org/dc/elements/1.1/"
   xmlns:cc="http://creativecommons.org/ns#"
   xmlns:rdf="http://www.w3.org/1999/02/22-rdf-syntax-ns#"
   xmlns:svg="http://www.w3.org/2000/svg"
   xmlns="http://www.w3.org/2000/svg"
   xmlns:xlink="http://www.w3.org/1999/xlink"
   xmlns:sodipodi="http://sodipodi.sourceforge.net/DTD/sodipodi-0.dtd"
   xmlns:inkscape="http://www.inkscape.org/namespaces/inkscape"
   version="1.1"
   width="100%"
   height="100%"
   viewBox="0 0 100 100"
   id="svg6643"
   xml:space="preserve"
   inkscape:version="0.48.5 r10040"
   sodipodi:docname="BonusVisitorPlazaAny.svg"><sodipodi:namedview
     pagecolor="#ffffff"
     bordercolor="#666666"
     borderopacity="1"
     objecttolerance="10"
     gridtolerance="10"
     guidetolerance="10"
     inkscape:pageopacity="0"
     inkscape:pageshadow="2"
     inkscape:window-width="708"
     inkscape:window-height="480"
     id="namedview3127"
     showgrid="false"
     inkscape:zoom="2.36"
     inkscape:cx="116.10169"
     inkscape:cy="46.398305"
     inkscape:window-x="568"
     inkscape:window-y="199"
     inkscape:window-maximized="0"
     inkscape:current-layer="svg6643" /><metadata
     id="metadata6651"><rdf:RDF><cc:Work
         rdf:about=""><dc:format>image/svg+xml</dc:format><dc:type
           rdf:resource="http://purl.org/dc/dcmitype/StillImage" /><dc:title></dc:title></cc:Work></rdf:RDF></metadata><defs
     id="defs6649"><linearGradient
       id="linearGradient7161"><stop
         id="stop7163"
         style="stop-color:#a76f37;stop-opacity:1"
         offset="0" /><stop
         id="stop7169"
         style="stop-color:#a76f37;stop-opacity:1"
         offset="0.5" /><stop
         id="stop7175"
         style="stop-color:#e63f7d;stop-opacity:1"
         offset="0.5" /><stop
         id="stop7165"
         style="stop-color:#e63f7d;stop-opacity:1"
         offset="1" /></linearGradient><linearGradient
       x1="-0.99949408"
       y1="49.999996"
       x2="100.99952"
       y2="49.999996"
       id="linearGradient7167"
       xlink:href="#linearGradient7161"
       gradientUnits="userSpaceOnUse" /></defs><path
     d="M 99.992,43.019 C 100.57,29.262 67.638,22.564 66.211,20.996 65.5,20.216 67.861,-0.015 50,0 32.139,-0.015 34.499,20.216 33.788,20.996 32.361,22.564 -0.569,29.262 0.008,43.019 0.584,56.777 18.059,49.711 21.786,53.76 25.046,57.304 6.507,79.989 4.433,94.394 3.757,99.089 5.077,100 9.64,100 c 8.276,0 16.177,-0.005 23.453,-0.005 3.287,0 4.456,-1.889 6.152,-4.492 C 42.999,89.741 47.533,80.479 50,80.48 c 2.466,-0.001 7.001,9.261 10.755,15.022 1.696,2.604 2.864,4.492 6.151,4.492 7.275,0 15.177,0.005 23.453,0.005 4.563,0 5.884,-0.911 5.207,-5.606 C 93.493,79.988 74.955,57.303 78.213,53.759 81.94,49.711 99.417,56.777 99.992,43.019 z"
     id="path6645"
     style="fill:url(#linearGradient7167);fill-opacity:1;fill-rule:evenodd;stroke:#5c1201;stroke-width:2;stroke-miterlimit:4;stroke-opacity:1;stroke-dasharray:none" /></svg>