<?xml version="1.0" encoding="UTF-8" standalone="no"?>
<!-- Created with Inkscape (http://www.inkscape.org/) -->

<svg
   xmlns:dc="http://purl.org/dc/elements/1.1/"
   xmlns:cc="http://creativecommons.org/ns#"
   xmlns:rdf="http://www.w3.org/1999/02/22-rdf-syntax-ns#"
   xmlns:svg="http://www.w3.org/2000/svg"
   xmlns="http://www.w3.org/2000/svg"
   xmlns:sodipodi="http://sodipodi.sourceforge.net/DTD/sodipodi-0.dtd"
   xmlns:inkscape="http://www.inkscape.org/namespaces/inkscape"
   width="204.22701"
   height="190.40945"
   id="svg2"
   version="1.1"
   inkscape:version="0.48.5 r10040"
   sodipodi:docname="BonusInfluence.svg">
  <defs
     id="defs4">
    <inkscape:perspective
       sodipodi:type="inkscape:persp3d"
       inkscape:vp_x="145.46197 : 276.67341 : 1"
       inkscape:vp_y="0 : 1000 : 0"
       inkscape:vp_z="637.01831 : 307.98814 : 1"
       inkscape:persp3d-origin="264.97107 : 132.59444 : 1"
       id="perspective3869" />
  </defs>
  <sodipodi:namedview
     id="base"
     pagecolor="#ffffff"
     bordercolor="#666666"
     borderopacity="1.0"
     inkscape:pageopacity="0.0"
     inkscape:pageshadow="2"
     inkscape:zoom="0.7"
     inkscape:cx="24.246883"
     inkscape:cy="36.099341"
     inkscape:document-units="px"
     inkscape:current-layer="layer2"
     showgrid="false"
     inkscape:window-width="734"
     inkscape:window-height="760"
     inkscape:window-x="574"
     inkscape:window-y="178"
     inkscape:window-maximized="0"
     fit-margin-top="0"
     fit-margin-left="0"
     fit-margin-right="0"
     fit-margin-bottom="0" />
  <metadata
     id="metadata7">
    <rdf:RDF>
      <cc:Work
         rdf:about="">
        <dc:format>image/svg+xml</dc:format>
        <dc:type
           rdf:resource="http://purl.org/dc/dcmitype/StillImage" />
        <dc:title />
      </cc:Work>
    </rdf:RDF>
  </metadata>
  <g
     inkscape:groupmode="layer"
     id="layer2"
     inkscape:label="Layer"
     transform="translate(-323.258,-264.38131)">
    <g
       id="g4324"
       transform="matrix(0.4,0,0,0.4,304.97149,173.95631)">
      <path
         id="path4217"
         d="m 301,226.0625 c -110.45695,0 -200,89.54305 -200,200 0,110.45695 89.54305,200 200,200 110.45695,0 200,-89.54305 200,-200 0,-110.45695 -89.54305,-200 -200,-200 z m 0,157.5 c 23.4721,0 42.5,19.0279 42.5,42.5 0,23.4721 -19.0279,42.5 -42.5,42.5 -23.4721,0 -42.5,-19.0279 -42.5,-42.5 0,-23.4721 19.0279,-42.5 42.5,-42.5 z"
         style="fill:#e63f7d;fill-opacity:1;fill-rule:nonzero;stroke:none"
         inkscape:connector-curvature="0" />
      <path
         inkscape:connector-curvature="0"
         id="path4219"
         d="m 301,326.06252 c -55.22848,0 -100,44.77152 -100,100 0,55.22847 44.77152,99.99997 100,99.99997 55.22847,0 100,-44.7715 100,-99.99997 0,-55.22848 -44.77153,-100 -100,-100 z m 0,10 c 49.70563,0 90,40.29437 90,90 0,49.70562 -40.29437,89.99997 -90,89.99997 -49.70563,0 -90,-40.29435 -90,-89.99997 0,-49.70563 40.29437,-90 90,-90 z"
         style="fill:#5c1201;fill-opacity:1;fill-rule:nonzero;stroke:none" />
      <path
         inkscape:connector-curvature="0"
         style="fill:#5c1201;fill-opacity:1;fill-rule:nonzero;stroke:none"
         d="m 301,226.06253 c -110.45696,0 -200,89.54305 -200,200 0,110.45695 89.54304,199.99995 200,199.99995 110.45695,0 200,-89.543 200,-199.99995 0,-110.45695 -89.54305,-200 -200,-200 z m 0,20 c 99.41125,0 180,80.58875 180,180 0,99.41125 -80.58875,179.99995 -180,179.99995 -99.41127,0 -180.00001,-80.5887 -180.00001,-179.99995 0,-99.41125 80.58874,-180 180.00001,-180 z"
         id="path4224" />
      <path
         id="path4241"
         d="m 301,363.5625 c -34.5178,0 -62.5,27.9822 -62.5,62.5 0,34.5178 27.9822,62.5 62.5,62.5 34.5178,0 62.5,-27.9822 62.5,-62.5 0,-34.5178 -27.9822,-62.5 -62.5,-62.5 z m 0,20 c 23.4721,0 42.5,19.0279 42.5,42.5 0,23.4721 -19.0279,42.5 -42.5,42.5 -23.4721,0 -42.5,-19.0279 -42.5,-42.5 0,-23.4721 19.0279,-42.5 42.5,-42.5 z"
         style="fill:#5c1201;fill-opacity:1;fill-rule:nonzero;stroke:none"
         inkscape:connector-curvature="0" />
      <path
         transform="matrix(2.4791667,0,0,1.9193549,-205.45836,200.80282)"
         d="m 221.42858,117.36218 c 0,12.22916 -7.67512,22.14286 -17.14286,22.14286 -9.46774,0 -17.14286,-9.9137 -17.14286,-22.14286 0,-12.22916 7.67512,-22.142854 17.14286,-22.142854 9.46774,0 17.14286,9.913694 17.14286,22.142854 z"
         sodipodi:ry="22.142857"
         sodipodi:rx="17.142857"
         sodipodi:cy="117.36218"
         sodipodi:cx="204.28572"
         id="path4310"
         style="fill:#ffffff;fill-opacity:1;fill-rule:nonzero;stroke:none"
         sodipodi:type="arc" />
      <g
         transform="translate(1.6540136e-7,-0.09800171)"
         id="g4304">
        <g
           id="g4296"
           transform="matrix(0.77460203,0,0,0.77458732,64.723658,-110.673)">
          <path
             inkscape:connector-curvature="0"
             id="path4253"
             d="m 303.87975,659.88451 a 20.002,20.002 0 0 0 -16.375,10.0625 l -157.34375,275 a 20.002,20.002 0 0 0 17.375,29.9375 l 315,-0.1875 a 20.002,20.002 0 0 0 17.34375,-29.96875 L 322.2235,669.91576 a 20.002,20.002 0 0 0 -18.34375,-10.03125 z m 1,60.1875 123.15625,214.65625 -246.03125,0.125 122.875,-214.78125 z"
             style="font-size:medium;font-style:normal;font-variant:normal;font-weight:normal;font-stretch:normal;text-indent:0;text-align:start;text-decoration:none;line-height:normal;letter-spacing:normal;word-spacing:normal;text-transform:none;direction:ltr;block-progression:tb;writing-mode:lr-tb;text-anchor:start;baseline-shift:baseline;color:#000000;fill:#5c1201;fill-opacity:1;fill-rule:nonzero;stroke:none;stroke-width:40;marker:none;visibility:visible;display:inline;overflow:visible;enable-background:accumulate;font-family:Sans;-inkscape-font-specification:Sans" />
          <path
             style="fill:#e63f7d;fill-opacity:1;fill-rule:nonzero;stroke:none"
             inkscape:transform-center-x="-0.69287368"
             inkscape:transform-center-y="-24.818933"
             d="m 462.52933,954.688 -314.99999,0.18426 157.34164,-275 z"
             id="path4276"
             inkscape:connector-curvature="0" />
        </g>
        <path
           sodipodi:type="arc"
           style="fill:#e63f7d;fill-opacity:1;fill-rule:nonzero;stroke:none"
           id="path4302"
           sodipodi:cx="218.92857"
           sodipodi:cy="183.07646"
           sodipodi:rx="36.785713"
           sodipodi:ry="27.857143"
           d="m 255.71429,183.07646 c 0,15.38508 -16.46953,27.85715 -36.78572,27.85715 -20.31618,0 -36.78571,-12.47207 -36.78571,-27.85715 0,-15.38507 16.46953,-27.85714 36.78571,-27.85714 20.31619,0 36.78572,12.47207 36.78572,27.85714 z"
           transform="matrix(1.0194175,0,0,1.3461538,77.891811,179.84125)" />
      </g>
    </g>
    <path
       inkscape:connector-curvature="0"
       clip-rule="evenodd"
       d="m 424.24949,396.80976 c 0.578,-13.757 -32.354,-20.455 -33.781,-22.023 -0.711,-0.78 1.65,-21.011 -16.211,-20.996 -17.861,-0.015 -15.501,20.216 -16.212,20.996 -1.427,1.568 -34.357,8.266 -33.78,22.023 0.576,13.758 18.051,6.692 21.778,10.741 3.26,3.544 -15.279,26.229 -17.353,40.634 -0.676,4.695 0.644,5.606 5.207,5.606 8.276,0 16.177,-0.005 23.453,-0.005 3.287,0 4.456,-1.889 6.152,-4.492 3.754,-5.762 8.288,-15.024 10.755,-15.023 2.466,-10e-4 7.001,9.261 10.755,15.022 1.696,2.604 2.864,4.492 6.151,4.492 7.275,0 15.177,0.005 23.453,0.005 4.563,0 5.884,-0.911 5.207,-5.606 -2.073,-14.405 -20.611,-37.09 -17.353,-40.634 3.727,-4.048 21.204,3.018 21.779,-10.74 z"
       id="path6645"
       style="fill:#e63f7d;fill-opacity:1;fill-rule:evenodd;stroke:#5c1201;stroke-width:2;stroke-miterlimit:4;stroke-opacity:1;stroke-dasharray:none" />
    <path
       inkscape:connector-curvature="0"
       clip-rule="evenodd"
       d="m 526.47748,396.80976 c 0.578,-13.757 -32.35399,-20.455 -33.78099,-22.023 -0.711,-0.78 1.65,-21.011 -16.211,-20.996 -17.861,-0.015 -15.501,20.216 -16.212,20.996 -1.427,1.568 -34.357,8.266 -33.78,22.023 0.576,13.758 18.051,6.692 21.778,10.741 3.26,3.544 -15.279,26.229 -17.353,40.634 -0.676,4.695 0.644,5.606 5.207,5.606 8.276,0 16.177,-0.005 23.453,-0.005 3.287,0 4.456,-1.889 6.152,-4.492 3.754,-5.762 8.288,-15.024 10.755,-15.023 2.466,-10e-4 7.001,9.261 10.755,15.022 1.696,2.604 2.864,4.492 6.151,4.492 7.275,0 15.177,0.005 23.453,0.005 4.563,0 5.884,-0.911 5.207,-5.606 -2.073,-14.405 -20.611,-37.09 -17.353,-40.634 3.727,-4.048 21.20399,3.018 21.77899,-10.74 z"
       id="path6645-7"
       style="fill:#ffffff;fill-opacity:1;fill-rule:evenodd;stroke:#5c1201;stroke-width:2;stroke-miterlimit:4;stroke-opacity:1;stroke-dasharray:none" />
    <text
       xml:space="preserve"
       style="font-size:40px;font-style:normal;font-weight:normal;line-height:125%;letter-spacing:0px;word-spacing:0px;fill:#ffffff;fill-opacity:1;stroke:none;font-family:Sans"
       x="354.04266"
       y="418.16574"
       id="text3884"
       sodipodi:linespacing="125%"><tspan
         sodipodi:role="line"
         id="tspan3886"
         x="354.04266"
         y="418.16574">x2</tspan></text>
    <text
       xml:space="preserve"
       style="font-size:40px;font-style:normal;font-weight:normal;line-height:125%;letter-spacing:0px;word-spacing:0px;fill:#5c1201;fill-opacity:1;stroke:none;font-family:Sans"
       x="458.88785"
       y="418.16574"
       id="text3888"
       sodipodi:linespacing="125%"><tspan
         sodipodi:role="line"
         id="tspan3890"
         x="458.88785"
         y="418.16574">x1</tspan></text>
  </g>
  <g
     inkscape:label="Layer 1"
     inkscape:groupmode="layer"
     id="layer1"
     transform="translate(-323.258,-264.38131)" />
</svg>
