<?xml version="1.0" encoding="UTF-8" standalone="no"?>
<!-- Created with Inkscape (http://www.inkscape.org/) -->

<svg
   xmlns:dc="http://purl.org/dc/elements/1.1/"
   xmlns:cc="http://creativecommons.org/ns#"
   xmlns:rdf="http://www.w3.org/1999/02/22-rdf-syntax-ns#"
   xmlns:svg="http://www.w3.org/2000/svg"
   xmlns="http://www.w3.org/2000/svg"
   xmlns:sodipodi="http://sodipodi.sourceforge.net/DTD/sodipodi-0.dtd"
   xmlns:inkscape="http://www.inkscape.org/namespaces/inkscape"
   width="269.76434"
   height="160.5204"
   id="svg2"
   version="1.1"
   inkscape:version="0.48.5 r10040"
   sodipodi:docname="New document 1">
  <defs
     id="defs4">
    <inkscape:perspective
       sodipodi:type="inkscape:persp3d"
       inkscape:vp_x="0 : 526.18109 : 1"
       inkscape:vp_y="0 : 1000 : 0"
       inkscape:vp_z="744.09448 : 526.18109 : 1"
       inkscape:persp3d-origin="372.04724 : 350.78739 : 1"
       id="perspective2985" />
  </defs>
  <sodipodi:namedview
     id="base"
     pagecolor="#ffffff"
     bordercolor="#666666"
     borderopacity="1.0"
     inkscape:pageopacity="0.0"
     inkscape:pageshadow="2"
     inkscape:zoom="0.35"
     inkscape:cx="248.02629"
     inkscape:cy="-15.584333"
     inkscape:document-units="px"
     inkscape:current-layer="layer1"
     showgrid="false"
     fit-margin-top="0"
     fit-margin-left="0"
     fit-margin-right="0"
     fit-margin-bottom="0"
     inkscape:window-width="1138"
     inkscape:window-height="697"
     inkscape:window-x="634"
     inkscape:window-y="204"
     inkscape:window-maximized="0" />
  <metadata
     id="metadata7">
    <rdf:RDF>
      <cc:Work
         rdf:about="">
        <dc:format>image/svg+xml</dc:format>
        <dc:type
           rdf:resource="http://purl.org/dc/dcmitype/StillImage" />
        <dc:title></dc:title>
      </cc:Work>
    </rdf:RDF>
  </metadata>
  <g
     inkscape:label="Layer 1"
     inkscape:groupmode="layer"
     id="layer1"
     transform="translate(-209.16789,-426.29737)">
    <rect
       ry="14.724534"
       y="439.45987"
       x="209.16789"
       height="102.85714"
       width="34.285713"
       id="rect3003"
       style="fill:#5c1201;fill-opacity:1;stroke:none" />
    <g
       transform="matrix(2.1438279,0,0,2.7115053,237.82803,372.60072)"
       id="g4667">
      <path
         d="m 6.4084858,58.031794 c 3.9878902,1.784157 7.2597772,1.643645 7.2597772,1.643645 -0.04481,1.797448 1.216061,3.486437 3.25575,4.098222 1.174881,0.350645 2.398211,0.279042 3.462871,-0.116881 0.01333,0.0074 0.02544,0.01474 0.03875,0.02211 l 0.495388,0.268511 0.239821,0.03686 -0.170782,0.429618 c -0.882977,2.228119 0.454206,4.65104 2.988073,5.40919 1.723562,0.515963 3.554922,0.126358 4.829123,-0.875032 -0.18895,1.898534 1.091306,3.73073 3.23516,4.371999 1.724773,0.515963 3.556134,0.126358 4.829123,-0.876085 -0.18895,1.898534 1.091307,3.731783 3.235161,4.373052 2.532655,0.75815 5.301497,-0.434884 6.183264,-2.663002 l 0.173204,-0.434883 8.041271,4.367786 c 1.103418,0.599149 2.372773,0.916098 3.668775,0.916098 2.4079,0 4.607471,-1.059304 5.881671,-2.832533 0.7558,-1.05088 1.113108,-2.251284 1.047702,-3.463271 l 0.09327,0.0516 c 1.104629,0.599149 2.372775,0.916098 3.669988,0.916098 2.406689,0 4.60747,-1.059304 5.88167,-2.832533 0.803037,-1.119324 1.132488,-2.379748 1.034379,-3.604371 0.782446,0.259034 1.615765,0.393817 2.459982,0.393817 2.4079,0 4.60747,-1.059304 5.881671,-2.833586 0.843007,-1.170921 1.162768,-2.499789 1.018633,-3.78022 0.588652,0.1411 1.201527,0.21165 1.819248,0.21165 4.366564,-0.445016 1.964982,-0.768828 5.516281,-1.649815 l 0.405028,-30.15 C 84.29806,30.717352 74.953464,30.808556 67.068399,25.974618 62.966467,24.606847 58.643565,22.257728 54.96955,21.121404 54.305877,20.924991 53.60508,20.762239 52.996522,20.714957 l -11.43272,-0.886614 c -1.655734,-0.129518 -3.300566,0.245345 -4.663187,1.06141 -0.03754,0.02211 -0.0969,0.05686 -0.163514,0.101086 -0.238609,0.154789 -0.548681,0.366439 -0.847852,0.631792 -1.143388,0.865555 -2.688901,2.064906 -4.225936,3.26531 -9.632525,4.340479 -25.432686,3.933246 -25.432686,3.933246 l -0.017686,1.089547 c 0,0 17.668543,-0.197798 20.604289,-1.224677 -1.250346,0.883138 -2.119958,2.269457 -1.953694,3.412728 0.161092,0.962429 0.830895,1.886951 1.618186,2.211271 0.324606,0.125305 0.760645,0.288518 1.249976,0.425406 0.197428,0.05792 0.39728,0.113723 0.621355,0.166372 0.913258,0.208491 1.856795,0.314843 2.802756,0.314843 2.46725,0 4.894529,-0.704448 7.200686,-2.085965 0.357308,-0.208492 2.285566,-1.373094 2.874218,-1.745852 0.449361,-0.285359 1.483741,-0.762361 3.340537,-0.762361 1.671782,0.03365 3.451022,0.363743 4.969624,0.673907 l 5.282118,2.422921 34.220517,18.592576 c 1.834994,0.998231 2.392154,3.098938 1.246342,4.693159 l 0,4e-6 c -0.742476,1.034033 -2.02031,1.601592 -3.326002,1.601592 -0.709773,0 -1.426813,-0.167424 -2.072392,-0.518069 l -17.28528,-9.389477 c -0.0012,0.0021 -0.0024,0.0042 -0.0036,0.0063 L 62.50941,45.939217 c -0.2483,-0.134782 -0.523246,-0.199014 -0.79577,-0.199014 -0.502655,0 -0.993198,0.219021 -1.280257,0.615997 -0.440883,0.61389 -0.226497,1.422584 0.479642,1.805871 l 5.186433,2.816738 c -0.0012,0.0021 -0.0036,0.0042 -0.0036,0.0063 l 14.228168,7.728918 c 1.834994,0.997178 2.393365,3.097885 1.245131,4.693159 -0.742477,1.034033 -2.02031,1.601592 -3.326002,1.601592 -0.708562,0 -1.426814,-0.167425 -2.072393,-0.518069 L 61.705131,56.631256 c -0.0024,0.0021 -0.0036,0.0042 -0.0048,0.0053 l -4.946655,-2.68722 c -0.2483,-0.134783 -0.525669,-0.197962 -0.796982,-0.197962 -0.502654,0 -0.993197,0.217968 -1.280256,0.614944 -0.440883,0.613891 -0.227708,1.422584 0.479642,1.805871 l 4.550543,2.472412 c -0.0012,0.0021 -0.0024,0.0042 -0.0048,0.0053 l 11.24494,6.109425 c 1.834994,0.996125 2.393365,3.096833 1.246343,4.692107 -0.743687,1.034032 -2.02031,1.601592 -3.326002,1.601592 -0.708562,0 -1.428025,-0.167425 -2.072393,-0.51807 L 52.842655,62.956544 c -0.0024,0.0011 -0.006,0.0021 -0.0097,0.0032 l -1.83864,-0.998231 c -0.74932,-0.378405 -1.708621,-0.07235 -2.077237,0.416983 -0.791267,1.323602 0.999672,2.093884 0.999672,2.093884 l 10.337343,5.616039 c 1.834993,0.994019 2.393366,3.09578 1.245131,4.691054 -0.742476,1.032979 -2.02031,1.601591 -3.326002,1.601591 -0.708561,0 -1.426813,-0.167424 -2.072392,-0.518069 l -8.631134,-4.687894 0.410211,-0.521111 c 0.257989,-0.650745 0.322183,-1.319391 0.225285,-1.956448 L 47.314247,66.87697 c -0.565638,-0.734984 -1.392899,-1.321497 -2.424857,-1.630022 -1.624242,-0.48648 -3.342959,-0.167425 -4.601413,0.708659 l 0.02907,-0.07266 c 0.882977,-2.229171 -0.455418,-4.65104 -2.988073,-5.40919 -2.43818,-0.729719 -3.320145,-0.210275 -5.247247,1.394217 0,0 1.737115,-3.480709 -1.598415,-5.467819 -1.749387,-1.04218 -5.078378,-0.879758 -6.311397,0.577571 -0.247089,-1.528936 -1.431659,-2.878864 -3.207303,-3.410622 -2.532655,-0.75815 -5.301498,0.43383 -6.184475,2.663002 l -0.270101,0.682335 c 0,0 -4.358092,0.993802 -8.2104631,-0.852386"
         id="path4669"
         inkscape:connector-curvature="0"
         style="fill:#5c1201;fill-opacity:1"
         sodipodi:nodetypes="ccccccccccccccccscccsccscccccccccccccccccccsccsccccccccccsccccccsccccsccccccscccccccccsccccccccccsccccc" />
    </g>
    <rect
       style="fill:#5c1201;fill-opacity:1;stroke:none"
       id="rect5601"
       width="34.285713"
       height="102.85714"
       x="444.64651"
       y="439.45987"
       ry="14.724534" />
  </g>
</svg>
