<?xml version="1.0" encoding="UTF-8" standalone="no"?>
<!-- Created with Inkscape (http://www.inkscape.org/) -->

<svg
   xmlns:dc="http://purl.org/dc/elements/1.1/"
   xmlns:cc="http://creativecommons.org/ns#"
   xmlns:rdf="http://www.w3.org/1999/02/22-rdf-syntax-ns#"
   xmlns:svg="http://www.w3.org/2000/svg"
   xmlns="http://www.w3.org/2000/svg"
   xmlns:sodipodi="http://sodipodi.sourceforge.net/DTD/sodipodi-0.dtd"
   xmlns:inkscape="http://www.inkscape.org/namespaces/inkscape"
   version="1.2"
   width="557.20001"
   height="315.42999"
   id="svg2"
   inkscape:version="0.48.5 r10040"
   sodipodi:docname="FameStarGoldOne.svg">
  <sodipodi:namedview
     pagecolor="#ffffff"
     bordercolor="#666666"
     borderopacity="1"
     objecttolerance="10"
     gridtolerance="10"
     guidetolerance="10"
     inkscape:pageopacity="0"
     inkscape:pageshadow="2"
     inkscape:window-width="640"
     inkscape:window-height="480"
     id="namedview3093"
     showgrid="false"
     inkscape:zoom="0.85041725"
     inkscape:cx="145.53931"
     inkscape:cy="138.75542"
     inkscape:window-x="0"
     inkscape:window-y="0"
     inkscape:window-maximized="0"
     inkscape:current-layer="svg2" />
  <defs
     id="defs4" />
  <metadata
     id="metadata7">
    <rdf:RDF>
      <cc:Work
         rdf:about="">
        <dc:format>image/svg+xml</dc:format>
        <dc:type
           rdf:resource="http://purl.org/dc/dcmitype/StillImage" />
        <dc:title />
      </cc:Work>
    </rdf:RDF>
  </metadata>
  <g
     transform="translate(17.257327,-214.5014)"
     id="layer2">
    <flowRoot
       id="flowRoot4350"
       xml:space="preserve"
       style="font-size:40px;font-style:normal;font-weight:normal;line-height:125%;letter-spacing:0px;word-spacing:0px;fill:#000000;fill-opacity:1;stroke:none;font-family:Sans"><flowRegion
         id="flowRegion4352"><rect
           width="105.71429"
           height="102.85714"
           x="325.71429"
           y="52.362183"
           id="rect4354" /></flowRegion><flowPara
         id="flowPara4356" /></flowRoot>    <path
       d="m 349.99998,526.64789 c -8.09538,5.90487 -78.41197,-47.13601 -88.43206,-47.11722 -10.0201,0.0188 -80.13724,53.32304 -88.25471,47.44858 -8.11747,-5.87446 20.59838,-89.14005 17.48413,-98.66392 -3.11425,-9.52386 -75.47699,-59.73731 -72.39849,-69.27279 3.07851,-9.53549 91.14248,-7.95557 99.23786,-13.86043 8.09538,-5.90487 33.48989,-90.24274 43.50998,-90.26153 10.02009,-0.0188 35.73076,84.22324 43.84823,90.0977 8.11748,5.87446 96.17489,3.96424 99.28914,13.48811 3.11425,9.52387 -69.05965,60.00839 -72.13815,69.54387 -3.07851,9.53548 25.94945,92.69277 17.85407,98.59763 z"
       id="path4503"
       style="fill:#f5ba4d;fill-opacity:1;fill-rule:nonzero;stroke:#5c1201;stroke-width:5;stroke-linecap:round;stroke-linejoin:round;stroke-miterlimit:4;stroke-opacity:1;stroke-dasharray:none"
       inkscape:connector-curvature="0" />
    <path
       d="m 349.99998,526.64789 -88.43218,-47.18098 -88.25459,47.51234 17.54473,-98.68373 -72.45909,-69.25298 99.27543,-13.80892 43.47241,-90.31304 43.81085,90.14935 99.32652,13.43646 -72.19883,69.52428 z"
       transform="matrix(0.72,0,0,0.72,73.176831,109.69206)"
       id="path4516"
       style="fill:#f5ba4d;fill-opacity:1;fill-rule:nonzero;stroke:#c4454e;stroke-width:5;stroke-linecap:round;stroke-linejoin:miter;stroke-miterlimit:4;stroke-opacity:1;stroke-dasharray:none"
       inkscape:connector-curvature="0" />
    <path
       d="m 349.99998,526.64789 -88.43218,-47.18098 -88.25459,47.51234 17.54473,-98.68373 -72.45909,-69.25298 99.27543,-13.80892 43.47241,-90.31304 43.81085,90.14935 99.32652,13.43646 -72.19883,69.52428 z"
       transform="matrix(0.4608,0,0,0.4608,140.91654,211.02628)"
       id="path4518"
       style="fill:#c4454d;fill-opacity:1;fill-rule:nonzero;stroke:none"
       inkscape:connector-curvature="0" />
  </g>
  <g
     transform="translate(-115.80337,-214.5014)"
     id="layer1"
     style="display:inline" />
</svg>
