<?xml version="1.0" encoding="UTF-8" standalone="no"?>
<!-- Created with Inkscape (http://www.inkscape.org/) -->

<svg
   xmlns:dc="http://purl.org/dc/elements/1.1/"
   xmlns:cc="http://creativecommons.org/ns#"
   xmlns:rdf="http://www.w3.org/1999/02/22-rdf-syntax-ns#"
   xmlns:svg="http://www.w3.org/2000/svg"
   xmlns="http://www.w3.org/2000/svg"
   version="1.2"
   width="351.48877"
   height="357.20303"
   id="svg2">
  <defs
     id="defs4" />
  <metadata
     id="metadata7">
    <rdf:RDF>
      <cc:Work
         rdf:about="">
        <dc:format>image/svg+xml</dc:format>
        <dc:type
           rdf:resource="http://purl.org/dc/dcmitype/StillImage" />
        <dc:title></dc:title>
      </cc:Work>
    </rdf:RDF>
  </metadata>
  <g
     transform="translate(-225.43419,-246.8678)"
     id="layer2">
    <flowRoot
       id="flowRoot4350"
       xml:space="preserve"
       style="font-size:40px;font-style:normal;font-weight:normal;line-height:125%;letter-spacing:0px;word-spacing:0px;fill:#000000;fill-opacity:1;stroke:none;font-family:Sans"><flowRegion
         id="flowRegion4352"><rect
           width="105.71429"
           height="102.85714"
           x="325.71429"
           y="52.362183"
           id="rect4354" /></flowRegion><flowPara
         id="flowPara4356" /></flowRoot>    <rect
       width="351.48877"
       height="357.20303"
       ry="0"
       x="225.43419"
       y="246.8678"
       id="rect5248"
       style="fill:#5c1201;fill-opacity:1;fill-rule:nonzero;stroke:none" />
  </g>
  <g
     transform="translate(-225.43419,-246.8678)"
     id="layer1"
     style="display:inline">
    <g
       transform="translate(12.693045,25.574609)"
       id="g5253">
      <path
         d="m 388.50232,300.42707 c -59.18111,0 -107.7595,48.25982 -107.7595,108.25529 0,59.99547 48.57839,108.25529 107.7595,108.25529 59.1811,0 107.72032,-48.25982 107.72032,-108.25529 0,-59.99547 -48.53922,-108.25529 -107.72032,-108.25529 z m 0,14.16424 c 52.57169,0 94.55886,42.33373 94.55886,94.09105 0,51.75732 -41.98717,94.09105 -94.55886,94.09105 -52.5717,0 -94.59804,-42.33373 -94.59804,-94.09105 0,-51.75732 42.02634,-94.09105 94.59804,-94.09105 z"
         id="path5235"
         style="font-size:medium;font-style:normal;font-variant:normal;font-weight:normal;font-stretch:normal;text-indent:0;text-align:start;text-decoration:none;line-height:normal;letter-spacing:normal;word-spacing:normal;text-transform:none;direction:ltr;block-progression:tb;writing-mode:lr-tb;text-anchor:start;baseline-shift:baseline;color:#000000;fill:#cb772f;fill-opacity:1;fill-rule:nonzero;stroke:none;stroke-width:10.5;marker:none;visibility:visible;display:inline;overflow:visible;enable-background:accumulate;font-family:Sans;-inkscape-font-specification:Sans" />
      <path
         d="m 349.99998,526.64789 c -8.09538,5.90487 -78.41197,-47.13601 -88.43206,-47.11722 -10.0201,0.0188 -80.13724,53.32304 -88.25471,47.44858 -8.11747,-5.87446 20.59838,-89.14005 17.48413,-98.66392 -3.11425,-9.52386 -75.47699,-59.73731 -72.39849,-69.27279 3.07851,-9.53549 91.14248,-7.95557 99.23786,-13.86043 8.09538,-5.90487 33.48989,-90.24274 43.50998,-90.26153 10.02009,-0.0188 35.73076,84.22324 43.84823,90.0977 8.11748,5.87446 96.17489,3.96424 99.28914,13.48811 3.11425,9.52387 -69.05965,60.00839 -72.13815,69.54387 -3.07851,9.53548 25.94945,92.69277 17.85407,98.59763 z"
         transform="matrix(0.89322995,0,0,0.89322995,155.04642,50.484583)"
         id="path4503"
         style="fill:#eddc85;fill-opacity:1;fill-rule:nonzero;stroke:#c44e11;stroke-width:5;stroke-linecap:round;stroke-linejoin:round;stroke-miterlimit:4;stroke-opacity:1;stroke-dasharray:none" />
      <path
         d="m 349.99998,526.64789 -88.43218,-47.18098 -88.25459,47.51234 17.54473,-98.68373 -72.45909,-69.25298 99.27543,-13.80892 43.47241,-90.31304 43.81085,90.14935 99.32652,13.43646 -72.19883,69.52428 z"
         transform="matrix(0.64312556,0,0,0.64312556,220.41016,148.46482)"
         id="path4516"
         style="fill:#eddc85;fill-opacity:1;fill-rule:nonzero;stroke:#c44e11;stroke-width:5;stroke-linecap:round;stroke-linejoin:miter;stroke-miterlimit:4;stroke-opacity:1;stroke-dasharray:none" />
      <path
         d="m 349.99998,526.64789 -88.43218,-47.18098 -88.25459,47.51234 17.54473,-98.68373 -72.45909,-69.25298 99.27543,-13.80892 43.47241,-90.31304 43.81085,90.14935 99.32652,13.43646 -72.19883,69.52428 z"
         transform="matrix(0.41160036,0,0,0.41160036,280.9173,238.97958)"
         id="path4518"
         style="fill:#c44e11;fill-opacity:1;fill-rule:nonzero;stroke:none" />
    </g>
  </g>
</svg>
