<?xml version="1.0" encoding="UTF-8" standalone="no"?>
<!-- Created with Inkscape (http://www.inkscape.org/) -->

<svg
   xmlns:dc="http://purl.org/dc/elements/1.1/"
   xmlns:cc="http://creativecommons.org/ns#"
   xmlns:rdf="http://www.w3.org/1999/02/22-rdf-syntax-ns#"
   xmlns:svg="http://www.w3.org/2000/svg"
   xmlns="http://www.w3.org/2000/svg"
   version="1.2"
   width="399.98444"
   height="380.0155"
   id="svg2">
  <defs
     id="defs4" />
  <metadata
     id="metadata7">
    <rdf:RDF>
      <cc:Work
         rdf:about="">
        <dc:format>image/svg+xml</dc:format>
        <dc:type
           rdf:resource="http://purl.org/dc/dcmitype/StillImage" />
        <dc:title></dc:title>
      </cc:Work>
    </rdf:RDF>
  </metadata>
  <g
     transform="translate(-234.55296,-277.4316)"
     id="layer2">
    <flowRoot
       id="flowRoot4350"
       xml:space="preserve"
       style="font-size:40px;font-style:normal;font-weight:normal;line-height:125%;letter-spacing:0px;word-spacing:0px;fill:#000000;fill-opacity:1;stroke:none;font-family:Sans"><flowRegion
         id="flowRegion4352"><rect
           width="105.71429"
           height="102.85714"
           x="325.71429"
           y="52.362183"
           id="rect4354" /></flowRegion><flowPara
         id="flowPara4356" /></flowRoot>  </g>
  <path
     d="M 195.22224,311.59853 C 181.82429,311.52089 87.686192,383.00518 77.195122,374.71064 66.174686,365.99754 104.52171,249.86766 100.25056,236.51999 96.184585,223.81348 -1.2113837,156.79223 3.4724165,144.29823 8.3925692,131.1738 131.20851,131.58697 142.6428,123.41925 153.52784,115.64387 187.47193,2.7381338 200.85774,3.3109689 214.919,3.9127078 252.4764,120.29795 263.81433,128.59768 c 10.7933,7.90107 129.16787,5.14275 132.75695,17.99077 3.77019,13.49633 -95.834,85.01319 -100.26107,98.31043 -4.21441,12.6585 35.00101,123.8595 23.83338,131.22719 -11.73116,7.73946 -110.84734,-64.44595 -124.92135,-64.52754 z"
     id="path4379"
     style="fill:#ffffff;fill-opacity:1;fill-rule:nonzero;stroke:#5c1201;stroke-width:6.61759138;stroke-miterlimit:4;stroke-opacity:1;stroke-dasharray:none" />
  <path
     d="m 261.1318,226.92142 29.74664,105.96988 -93.82312,-62.45918 -91.52694,61.05526 30.37144,-108.58891 -86.313382,-68.23566 112.593692,-4.65246 38.18232,-103.227201 39.21531,105.713531 109.91136,4.43774 z"
     id="path4381"
     style="fill:#ffffff;fill-opacity:1;fill-rule:nonzero;stroke:#5c1201;stroke-width:1.75769258;stroke-linecap:round;stroke-linejoin:round;stroke-miterlimit:4;stroke-opacity:1;stroke-dasharray:none" />
  <text
     x="205.69441"
     y="212.06651"
     transform="scale(0.84277956,1.1865499)"
     id="text7114"
     xml:space="preserve"
     style="font-size:113.01146698px;font-style:normal;font-weight:normal;line-height:125%;letter-spacing:0px;word-spacing:0px;fill:#5c1201;fill-opacity:1;stroke:none;font-family:Sans"><tspan
       x="205.69441"
       y="212.06651"
       id="tspan7116">0</tspan></text>
</svg>
