<?xml version="1.0" encoding="UTF-8" standalone="no"?>
<!-- Created with Inkscape (http://www.inkscape.org/) -->

<svg
   xmlns:dc="http://purl.org/dc/elements/1.1/"
   xmlns:cc="http://creativecommons.org/ns#"
   xmlns:rdf="http://www.w3.org/1999/02/22-rdf-syntax-ns#"
   xmlns:svg="http://www.w3.org/2000/svg"
   xmlns="http://www.w3.org/2000/svg"
   xmlns:sodipodi="http://sodipodi.sourceforge.net/DTD/sodipodi-0.dtd"
   xmlns:inkscape="http://www.inkscape.org/namespaces/inkscape"
   width="232.8028"
   height="196.91043"
   id="svg2"
   version="1.1"
   inkscape:version="0.48.5 r10040"
   sodipodi:docname="Assistant.svg">
  <defs
     id="defs4">
    <inkscape:perspective
       sodipodi:type="inkscape:persp3d"
       inkscape:vp_x="145.46197 : 276.67341 : 1"
       inkscape:vp_y="0 : 1000 : 0"
       inkscape:vp_z="637.01831 : 307.98814 : 1"
       inkscape:persp3d-origin="264.97107 : 132.59444 : 1"
       id="perspective3869" />
  </defs>
  <sodipodi:namedview
     id="base"
     pagecolor="#ffffff"
     bordercolor="#666666"
     borderopacity="1.0"
     inkscape:pageopacity="0.0"
     inkscape:pageshadow="2"
     inkscape:zoom="0.35"
     inkscape:cx="-308.24429"
     inkscape:cy="-143.18351"
     inkscape:document-units="px"
     inkscape:current-layer="layer1"
     showgrid="false"
     inkscape:window-width="944"
     inkscape:window-height="904"
     inkscape:window-x="902"
     inkscape:window-y="55"
     inkscape:window-maximized="0"
     fit-margin-top="0"
     fit-margin-left="0"
     fit-margin-right="0"
     fit-margin-bottom="0" />
  <metadata
     id="metadata7">
    <rdf:RDF>
      <cc:Work
         rdf:about="">
        <dc:format>image/svg+xml</dc:format>
        <dc:type
           rdf:resource="http://purl.org/dc/dcmitype/StillImage" />
        <dc:title></dc:title>
      </cc:Work>
    </rdf:RDF>
  </metadata>
  <g
     inkscape:groupmode="layer"
     id="layer2"
     inkscape:label="Layer"
     transform="translate(-261.37014,-424.52892)">
    <flowRoot
       xml:space="preserve"
       id="flowRoot4350"
       style="font-size:40px;font-style:normal;font-weight:normal;line-height:125%;letter-spacing:0px;word-spacing:0px;fill:#000000;fill-opacity:1;stroke:none;font-family:Sans"><flowRegion
         id="flowRegion4352"><rect
           id="rect4354"
           width="105.71429"
           height="102.85714"
           x="325.71429"
           y="52.362183" /></flowRegion><flowPara
         id="flowPara4356" /></flowRoot>  </g>
  <g
     inkscape:label="Layer 1"
     inkscape:groupmode="layer"
     id="layer1"
     style="display:inline"
     transform="translate(-261.37014,-424.52892)">
    <g
       id="g3939"
       transform="matrix(0.5,0,0,0.5,188.88577,261.49207)">
      <path
         style="fill:#5c1201;fill-opacity:1;fill-rule:nonzero;stroke:#5c1201;stroke-width:5;stroke-linecap:round;stroke-linejoin:round;stroke-miterlimit:4;stroke-opacity:1;display:inline"
         d="m 242.4375,573.5625 c -52.60471,0 -94.96875,42.3328 -94.96875,94.9375 53.94929,68.85138 360.50893,61.42857 391.9375,0 0,-52.6047 -42.3328,-94.9375 -94.9375,-94.9375 l -29.46875,0 c -16.64356,25.21421 -42.51257,41.40625 -71.5625,41.40625 -29.04994,0 -54.88769,-16.19204 -71.53125,-41.40625 z"
         id="path4470"
         inkscape:connector-curvature="0"
         sodipodi:nodetypes="sccscscs" />
      <g
         transform="translate(16.90025,-9.6998174)"
         id="g3922">
        <path
           style="fill:#5c1201;fill-opacity:1;fill-rule:nonzero;stroke:#5c1201;stroke-width:4.75;stroke-linecap:round;stroke-linejoin:round;stroke-miterlimit:4;stroke-opacity:1;display:inline"
           d="m 439.15625,555.40625 3.79727,14.62072 c 50.6299,0 93.24965,42.75389 96.26523,92.59803 8.64765,-5.06695 14.91062,-10.7486 18.125,-17.03125 0,-49.97447 -40.21304,-90.1875 -90.1875,-90.1875 z"
           id="path3882"
           inkscape:connector-curvature="0"
           sodipodi:nodetypes="ccccsc" />
        <path
           sodipodi:nodetypes="scscss"
           inkscape:connector-curvature="0"
           style="fill:#5c1201;fill-opacity:1;fill-rule:nonzero;stroke:#5c1201;stroke-width:4.75;stroke-linecap:round;stroke-linejoin:round;stroke-miterlimit:4;stroke-opacity:1;display:inline"
           d="m 372.875,352.5 c -9.94404,0 -19.51575,2.01079 -28.40625,5.6875 49.73387,0.65896 89.875,48.80965 89.875,108.09375 0,36.08557 0.49521,48.02427 -18.79018,73.37054 26.85805,-17.27191 43.66518,-37.55363 43.66518,-84.46429 0,-56.70971 -38.644,-102.6875 -86.34375,-102.6875 z"
           id="path3884" />
      </g>
      <g
         id="g3926"
         transform="matrix(0.95,0,0,0.95,78.841517,-6.5450478)">
        <path
           sodipodi:nodetypes="ccccsc"
           inkscape:connector-curvature="0"
           id="path3928"
           d="m 439.15625,555.40625 5.3125,14.43464 c 50.6299,0 91.73442,42.93997 94.75,92.78411 8.64765,-5.06695 14.91062,-10.7486 18.125,-17.03125 0,-49.97447 -40.21304,-90.1875 -90.1875,-90.1875 z"
           style="fill:#5c1201;fill-opacity:1;fill-rule:nonzero;stroke:#5c1201;stroke-width:4.75;stroke-linecap:round;stroke-linejoin:round;stroke-miterlimit:4;stroke-opacity:1;display:inline" />
        <path
           sodipodi:nodetypes="scscss"
           id="path3930"
           d="m 372.875,352.5 c -9.94404,0 -19.51575,2.01079 -28.40625,5.6875 49.73387,0.65896 90.52195,47.8009 93.06496,107.03043 1.59497,37.14889 -1.67738,45.14079 -15.60281,68.31195 23.08815,-23.20088 37.28785,-31.43172 37.28785,-78.34238 0,-56.70971 -38.644,-102.6875 -86.34375,-102.6875 z"
           style="fill:#5c1201;fill-opacity:1;fill-rule:nonzero;stroke:#5c1201;stroke-width:4.75;stroke-linecap:round;stroke-linejoin:round;stroke-miterlimit:4;stroke-opacity:1;display:inline"
           inkscape:connector-curvature="0" />
      </g>
      <g
         id="g3876">
        <path
           id="path4437"
           d="m 404.061,301.81885 c 0,59.69442 -40.70346,108.08632 -90.91372,108.08632 -50.21027,0 -90.91373,-48.3919 -90.91373,-108.08632 0,-59.69443 40.70346,-108.08632 90.91373,-108.08632 50.21026,0 90.91372,48.39189 90.91372,108.08632 z"
           style="fill:#5c1201;fill-opacity:1;fill-rule:nonzero;stroke:#5c1201;stroke-width:5;stroke-linecap:round;stroke-linejoin:round;stroke-miterlimit:4;stroke-opacity:1"
           transform="translate(30.290222,164.45302)"
           inkscape:connector-curvature="0" />
      </g>
    </g>
  </g>
</svg>
