<?xml version="1.0" encoding="UTF-8" standalone="no"?>
<!-- Created with Inkscape (http://www.inkscape.org/) -->

<svg
   xmlns:dc="http://purl.org/dc/elements/1.1/"
   xmlns:cc="http://creativecommons.org/ns#"
   xmlns:rdf="http://www.w3.org/1999/02/22-rdf-syntax-ns#"
   xmlns:svg="http://www.w3.org/2000/svg"
   xmlns="http://www.w3.org/2000/svg"
   xmlns:sodipodi="http://sodipodi.sourceforge.net/DTD/sodipodi-0.dtd"
   xmlns:inkscape="http://www.inkscape.org/namespaces/inkscape"
   width="100"
   height="104.57492"
   id="svg2"
   version="1.1"
   inkscape:version="0.48.5 r10040"
   sodipodi:docname="InfluenceTwo.svg">
  <defs
     id="defs4">
    <inkscape:perspective
       sodipodi:type="inkscape:persp3d"
       inkscape:vp_x="145.46197 : 276.67341 : 1"
       inkscape:vp_y="0 : 1000 : 0"
       inkscape:vp_z="637.01831 : 307.98814 : 1"
       inkscape:persp3d-origin="264.97107 : 132.59444 : 1"
       id="perspective3869" />
  </defs>
  <sodipodi:namedview
     id="base"
     pagecolor="#ffffff"
     bordercolor="#666666"
     borderopacity="1.0"
     inkscape:pageopacity="0.0"
     inkscape:pageshadow="2"
     inkscape:zoom="1.979899"
     inkscape:cx="5.892391"
     inkscape:cy="27.781379"
     inkscape:document-units="px"
     inkscape:current-layer="g3804"
     showgrid="false"
     inkscape:window-width="944"
     inkscape:window-height="904"
     inkscape:window-x="814"
     inkscape:window-y="129"
     inkscape:window-maximized="0"
     showguides="true"
     inkscape:guide-bbox="true"
     fit-margin-top="0"
     fit-margin-left="0"
     fit-margin-right="0"
     fit-margin-bottom="0" />
  <metadata
     id="metadata7">
    <rdf:RDF>
      <cc:Work
         rdf:about="">
        <dc:format>image/svg+xml</dc:format>
        <dc:type
           rdf:resource="http://purl.org/dc/dcmitype/StillImage" />
        <dc:title />
      </cc:Work>
    </rdf:RDF>
  </metadata>
  <g
     inkscape:groupmode="layer"
     id="layer2"
     inkscape:label="Layer"
     transform="translate(-251,-382.92488)">
    <g
       style="font-size:40px;font-style:normal;font-weight:normal;line-height:125%;letter-spacing:0px;word-spacing:0px;fill:#ffffff;fill-opacity:1;stroke:#5c1201;stroke-opacity:1;font-family:Sans"
       id="text3778"
       transform="matrix(3.375,0,0,3.375,-534.86669,-517.7435)" />
    <g
       transform="matrix(3.375,0,0,-3.375,-535.11923,946.93101)"
       id="g3785"
       style="font-size:40px;font-style:normal;font-weight:normal;line-height:125%;letter-spacing:0px;word-spacing:0px;fill:#ffffff;fill-opacity:1;stroke:#5c1201;stroke-opacity:1;font-family:Sans" />
    <g
       id="g3804"
       transform="matrix(0.5,0,0,0.5,150.5,217.60617)">
      <g
         transform="matrix(0.5,0,0,0.5,150.5,217.60617)"
         id="g4324">
        <path
           inkscape:connector-curvature="0"
           style="fill:#e63f7d;fill-opacity:1;fill-rule:nonzero;stroke:none"
           d="m 301,226.0625 c -110.45695,0 -200,89.54305 -200,200 0,110.45695 89.54305,200 200,200 110.45695,0 200,-89.54305 200,-200 0,-110.45695 -89.54305,-200 -200,-200 z m 0,157.5 c 23.4721,0 42.5,19.0279 42.5,42.5 0,23.4721 -19.0279,42.5 -42.5,42.5 -23.4721,0 -42.5,-19.0279 -42.5,-42.5 0,-23.4721 19.0279,-42.5 42.5,-42.5 z"
           id="path4217" />
        <path
           style="fill:#5c1201;fill-opacity:1;fill-rule:nonzero;stroke:none"
           d="m 301,326.06252 c -55.22848,0 -100,44.77152 -100,100 0,55.22847 44.77152,99.99997 100,99.99997 55.22847,0 100,-44.7715 100,-99.99997 0,-55.22848 -44.77153,-100 -100,-100 z m 0,10 c 49.70563,0 90,40.29437 90,90 0,49.70562 -40.29437,89.99997 -90,89.99997 -49.70563,0 -90,-40.29435 -90,-89.99997 0,-49.70563 40.29437,-90 90,-90 z"
           id="path4219"
           inkscape:connector-curvature="0" />
        <path
           id="path4224"
           d="m 301,226.06253 c -110.45696,0 -200,89.54305 -200,200 0,110.45695 89.54304,199.99995 200,199.99995 110.45695,0 200,-89.543 200,-199.99995 0,-110.45695 -89.54305,-200 -200,-200 z m 0,20 c 99.41125,0 180,80.58875 180,180 0,99.41125 -80.58875,179.99995 -180,179.99995 -99.41127,0 -180.00001,-80.5887 -180.00001,-179.99995 0,-99.41125 80.58874,-180 180.00001,-180 z"
           style="fill:#5c1201;fill-opacity:1;fill-rule:nonzero;stroke:none"
           inkscape:connector-curvature="0" />
        <path
           inkscape:connector-curvature="0"
           style="fill:#5c1201;fill-opacity:1;fill-rule:nonzero;stroke:none"
           d="m 301,363.5625 c -34.5178,0 -62.5,27.9822 -62.5,62.5 0,34.5178 27.9822,62.5 62.5,62.5 34.5178,0 62.5,-27.9822 62.5,-62.5 0,-34.5178 -27.9822,-62.5 -62.5,-62.5 z m 0,20 c 23.4721,0 42.5,19.0279 42.5,42.5 0,23.4721 -19.0279,42.5 -42.5,42.5 -23.4721,0 -42.5,-19.0279 -42.5,-42.5 0,-23.4721 19.0279,-42.5 42.5,-42.5 z"
           id="path4241" />
        <path
           sodipodi:type="arc"
           style="fill:#ffffff;fill-opacity:1;fill-rule:nonzero;stroke:none"
           id="path4310"
           sodipodi:cx="204.28572"
           sodipodi:cy="117.36218"
           sodipodi:rx="17.142857"
           sodipodi:ry="22.142857"
           d="m 221.42858,117.36218 c 0,12.22916 -7.67512,22.14286 -17.14286,22.14286 -9.46774,0 -17.14286,-9.9137 -17.14286,-22.14286 0,-12.22916 7.67512,-22.142854 17.14286,-22.142854 9.46774,0 17.14286,9.913694 17.14286,22.142854 z"
           transform="matrix(2.4791667,0,0,1.9193549,-205.45836,200.80282)" />
        <g
           id="g4304"
           transform="translate(1.6540136e-7,-0.09800171)">
          <g
             transform="matrix(0.77460203,0,0,0.77458732,64.723658,-110.673)"
             id="g4296">
            <path
               style="font-size:medium;font-style:normal;font-variant:normal;font-weight:normal;font-stretch:normal;text-indent:0;text-align:start;text-decoration:none;line-height:normal;letter-spacing:normal;word-spacing:normal;text-transform:none;direction:ltr;block-progression:tb;writing-mode:lr-tb;text-anchor:start;baseline-shift:baseline;color:#000000;fill:#5c1201;fill-opacity:1;fill-rule:nonzero;stroke:none;stroke-width:40;marker:none;visibility:visible;display:inline;overflow:visible;enable-background:accumulate;font-family:Sans;-inkscape-font-specification:Sans"
               d="m 303.87975,659.88451 a 20.002,20.002 0 0 0 -16.375,10.0625 l -157.34375,275 a 20.002,20.002 0 0 0 17.375,29.9375 l 315,-0.1875 a 20.002,20.002 0 0 0 17.34375,-29.96875 L 322.2235,669.91576 a 20.002,20.002 0 0 0 -18.34375,-10.03125 z m 1,60.1875 123.15625,214.65625 -246.03125,0.125 122.875,-214.78125 z"
               id="path4253"
               inkscape:connector-curvature="0" />
            <path
               inkscape:connector-curvature="0"
               id="path4276"
               d="m 462.52933,954.688 -314.99999,0.18426 157.34164,-275 z"
               inkscape:transform-center-y="-24.818933"
               inkscape:transform-center-x="-0.69287368"
               style="fill:#e63f7d;fill-opacity:1;fill-rule:nonzero;stroke:none" />
          </g>
          <path
             transform="matrix(1.0194175,0,0,1.3461538,77.891811,179.84125)"
             d="m 255.71429,183.07646 c 0,15.38508 -16.46953,27.85715 -36.78572,27.85715 -20.31618,0 -36.78571,-12.47207 -36.78571,-27.85715 0,-15.38507 16.46953,-27.85714 36.78571,-27.85714 20.31619,0 36.78572,12.47207 36.78572,27.85714 z"
             sodipodi:ry="27.857143"
             sodipodi:rx="36.785713"
             sodipodi:cy="183.07646"
             sodipodi:cx="218.92857"
             id="path4302"
             style="fill:#e63f7d;fill-opacity:1;fill-rule:nonzero;stroke:none"
             sodipodi:type="arc" />
        </g>
      </g>
      <path
         transform="matrix(1.2064958,0,0,0.57200196,74.184742,284.40815)"
         d="m 211.12189,254.34167 c 0,27.33671 -10.62813,49.49748 -23.73859,49.49748 -13.11046,0 -23.73858,-22.16077 -23.73858,-49.49748 0,-27.3367 10.62812,-49.49747 23.73858,-49.49747 13.11046,0 23.73859,22.16077 23.73859,49.49747 z"
         sodipodi:ry="49.497475"
         sodipodi:rx="23.738585"
         sodipodi:cy="254.34167"
         sodipodi:cx="187.3833"
         id="path3800"
         style="fill:#5c1201;fill-opacity:1;fill-rule:nonzero;stroke:#5c1201;stroke-width:3;stroke-linecap:round;stroke-linejoin:miter;stroke-miterlimit:4;stroke-opacity:1;stroke-dasharray:none"
         sodipodi:type="arc" />
      <g
         transform="matrix(0.91102645,0,0,1.0662077,7.8930859,0)"
         style="font-size:108.67108917000000000px;font-style:normal;font-weight:bold;line-height:125%;letter-spacing:0px;word-spacing:0px;fill:#ffffff;fill-opacity:1;stroke:#5c1201;stroke-width:7.29199982000000000;stroke-miterlimit:4;stroke-opacity:1;stroke-dasharray:none;font-family:Sans;-inkscape-font-specification:Sans Bold;stroke-linejoin:round;stroke-linecap:round"
         id="text3796">
        <path
           d="m 345.93924,442.95665 0,13.8492 -52.26613,0 c 0.566,-5.23545 2.26398,-10.19675 5.09396,-14.88391 2.82997,-4.68713 8.41916,-10.90423 16.76761,-18.65131 6.72116,-6.26128 10.84231,-10.50624 12.36346,-12.7349 2.05169,-3.07754 3.07756,-6.11977 3.0776,-9.12667 -4e-5,-3.32516 -0.89325,-5.88098 -2.67963,-7.66747 -1.78646,-1.78635 -4.25385,-2.67956 -7.40216,-2.67963 -3.113,7e-5 -5.58923,0.9375 -7.42869,2.81229 -1.8395,1.87492 -2.90074,4.98789 -3.18372,9.33892 l -14.85738,-1.48574 c 0.88436,-8.20686 3.66128,-14.09675 8.33074,-17.66966 4.66945,-3.57277 10.50627,-5.35919 17.51048,-5.35927 7.67628,8e-5 13.70766,2.0695 18.09416,6.20826 4.38641,4.13891 6.57964,9.28592 6.5797,15.44106 -6e-5,3.50215 -0.62796,6.83621 -1.8837,10.0022 -1.25586,3.16608 -3.24568,6.48245 -5.96949,9.94913 -1.80415,2.29939 -5.05862,5.60692 -9.76341,9.92261 -4.70487,4.31573 -7.68519,7.18108 -8.94096,8.59605 -1.25583,1.41501 -2.27285,2.79462 -3.05107,4.13884 z"
           style="stroke-width:7.29199982000000000;stroke-miterlimit:4;stroke-dasharray:none;stroke-linejoin:round;stroke-linecap:round"
           id="path3899"
           inkscape:connector-curvature="0" />
      </g>
    </g>
  </g>
  <g
     inkscape:label="Layer 1"
     inkscape:groupmode="layer"
     id="layer1"
     transform="translate(-251,-382.92488)" />
</svg>
