<?xml version="1.0" encoding="UTF-8" standalone="no"?>
<!-- Created with Inkscape (http://www.inkscape.org/) -->

<svg
   xmlns:dc="http://purl.org/dc/elements/1.1/"
   xmlns:cc="http://creativecommons.org/ns#"
   xmlns:rdf="http://www.w3.org/1999/02/22-rdf-syntax-ns#"
   xmlns:svg="http://www.w3.org/2000/svg"
   xmlns="http://www.w3.org/2000/svg"
   xmlns:sodipodi="http://sodipodi.sourceforge.net/DTD/sodipodi-0.dtd"
   xmlns:inkscape="http://www.inkscape.org/namespaces/inkscape"
   width="100"
   height="104.57492"
   id="svg2"
   version="1.1"
   inkscape:version="0.48.5 r10040"
   sodipodi:docname="InfluenceFour.svg">
  <defs
     id="defs4">
    <inkscape:perspective
       sodipodi:type="inkscape:persp3d"
       inkscape:vp_x="145.46197 : 276.67341 : 1"
       inkscape:vp_y="0 : 1000 : 0"
       inkscape:vp_z="637.01831 : 307.98814 : 1"
       inkscape:persp3d-origin="264.97107 : 132.59444 : 1"
       id="perspective3869" />
  </defs>
  <sodipodi:namedview
     id="base"
     pagecolor="#ffffff"
     bordercolor="#666666"
     borderopacity="1.0"
     inkscape:pageopacity="0.0"
     inkscape:pageshadow="2"
     inkscape:zoom="2.8"
     inkscape:cx="25.979545"
     inkscape:cy="41.772218"
     inkscape:document-units="px"
     inkscape:current-layer="g4571"
     showgrid="false"
     inkscape:window-width="944"
     inkscape:window-height="904"
     inkscape:window-x="633"
     inkscape:window-y="97"
     inkscape:window-maximized="0"
     showguides="true"
     inkscape:guide-bbox="true"
     fit-margin-top="0"
     fit-margin-left="0"
     fit-margin-right="0"
     fit-margin-bottom="0" />
  <metadata
     id="metadata7">
    <rdf:RDF>
      <cc:Work
         rdf:about="">
        <dc:format>image/svg+xml</dc:format>
        <dc:type
           rdf:resource="http://purl.org/dc/dcmitype/StillImage" />
        <dc:title></dc:title>
      </cc:Work>
    </rdf:RDF>
  </metadata>
  <g
     inkscape:groupmode="layer"
     id="layer2"
     inkscape:label="Layer"
     transform="translate(-251,-382.92488)">
    <g
       style="font-size:40px;font-style:normal;font-weight:normal;line-height:125%;letter-spacing:0px;word-spacing:0px;fill:#ffffff;fill-opacity:1;stroke:#5c1201;stroke-opacity:1;font-family:Sans"
       id="text3778"
       transform="matrix(3.375,0,0,3.375,-534.86669,-517.7435)" />
    <g
       transform="matrix(3.375,0,0,-3.375,-535.11923,946.93101)"
       id="g3785"
       style="font-size:40px;font-style:normal;font-weight:normal;line-height:125%;letter-spacing:0px;word-spacing:0px;fill:#ffffff;fill-opacity:1;stroke:#5c1201;stroke-opacity:1;font-family:Sans" />
    <g
       id="g3804"
       transform="matrix(0.5,0,0,0.5,150.5,217.60617)">
      <g
         transform="matrix(0.5,0,0,0.5,150.5,217.60617)"
         id="g4324">
        <path
           inkscape:connector-curvature="0"
           style="fill:#e63f7d;fill-opacity:1;fill-rule:nonzero;stroke:none"
           d="m 301,226.0625 c -110.45695,0 -200,89.54305 -200,200 0,110.45695 89.54305,200 200,200 110.45695,0 200,-89.54305 200,-200 0,-110.45695 -89.54305,-200 -200,-200 z m 0,157.5 c 23.4721,0 42.5,19.0279 42.5,42.5 0,23.4721 -19.0279,42.5 -42.5,42.5 -23.4721,0 -42.5,-19.0279 -42.5,-42.5 0,-23.4721 19.0279,-42.5 42.5,-42.5 z"
           id="path4217" />
        <path
           style="fill:#5c1201;fill-opacity:1;fill-rule:nonzero;stroke:none"
           d="m 301,326.06252 c -55.22848,0 -100,44.77152 -100,100 0,55.22847 44.77152,99.99997 100,99.99997 55.22847,0 100,-44.7715 100,-99.99997 0,-55.22848 -44.77153,-100 -100,-100 z m 0,10 c 49.70563,0 90,40.29437 90,90 0,49.70562 -40.29437,89.99997 -90,89.99997 -49.70563,0 -90,-40.29435 -90,-89.99997 0,-49.70563 40.29437,-90 90,-90 z"
           id="path4219"
           inkscape:connector-curvature="0" />
        <path
           id="path4224"
           d="m 301,226.06253 c -110.45696,0 -200,89.54305 -200,200 0,110.45695 89.54304,199.99995 200,199.99995 110.45695,0 200,-89.543 200,-199.99995 0,-110.45695 -89.54305,-200 -200,-200 z m 0,20 c 99.41125,0 180,80.58875 180,180 0,99.41125 -80.58875,179.99995 -180,179.99995 -99.41127,0 -180.00001,-80.5887 -180.00001,-179.99995 0,-99.41125 80.58874,-180 180.00001,-180 z"
           style="fill:#5c1201;fill-opacity:1;fill-rule:nonzero;stroke:none"
           inkscape:connector-curvature="0" />
        <path
           inkscape:connector-curvature="0"
           style="fill:#5c1201;fill-opacity:1;fill-rule:nonzero;stroke:none"
           d="m 301,363.5625 c -34.5178,0 -62.5,27.9822 -62.5,62.5 0,34.5178 27.9822,62.5 62.5,62.5 34.5178,0 62.5,-27.9822 62.5,-62.5 0,-34.5178 -27.9822,-62.5 -62.5,-62.5 z m 0,20 c 23.4721,0 42.5,19.0279 42.5,42.5 0,23.4721 -19.0279,42.5 -42.5,42.5 -23.4721,0 -42.5,-19.0279 -42.5,-42.5 0,-23.4721 19.0279,-42.5 42.5,-42.5 z"
           id="path4241" />
        <path
           sodipodi:type="arc"
           style="fill:#ffffff;fill-opacity:1;fill-rule:nonzero;stroke:none"
           id="path4310"
           sodipodi:cx="204.28572"
           sodipodi:cy="117.36218"
           sodipodi:rx="17.142857"
           sodipodi:ry="22.142857"
           d="m 221.42858,117.36218 c 0,12.22916 -7.67512,22.14286 -17.14286,22.14286 -9.46774,0 -17.14286,-9.9137 -17.14286,-22.14286 0,-12.22916 7.67512,-22.142854 17.14286,-22.142854 9.46774,0 17.14286,9.913694 17.14286,22.142854 z"
           transform="matrix(2.4791667,0,0,1.9193549,-205.45836,200.80282)" />
        <g
           id="g4304"
           transform="translate(1.6540136e-7,-0.09800171)">
          <g
             transform="matrix(0.77460203,0,0,0.77458732,64.723658,-110.673)"
             id="g4296">
            <path
               style="font-size:medium;font-style:normal;font-variant:normal;font-weight:normal;font-stretch:normal;text-indent:0;text-align:start;text-decoration:none;line-height:normal;letter-spacing:normal;word-spacing:normal;text-transform:none;direction:ltr;block-progression:tb;writing-mode:lr-tb;text-anchor:start;baseline-shift:baseline;color:#000000;fill:#5c1201;fill-opacity:1;fill-rule:nonzero;stroke:none;stroke-width:40;marker:none;visibility:visible;display:inline;overflow:visible;enable-background:accumulate;font-family:Sans;-inkscape-font-specification:Sans"
               d="m 303.87975,659.88451 a 20.002,20.002 0 0 0 -16.375,10.0625 l -157.34375,275 a 20.002,20.002 0 0 0 17.375,29.9375 l 315,-0.1875 a 20.002,20.002 0 0 0 17.34375,-29.96875 L 322.2235,669.91576 a 20.002,20.002 0 0 0 -18.34375,-10.03125 z m 1,60.1875 123.15625,214.65625 -246.03125,0.125 122.875,-214.78125 z"
               id="path4253"
               inkscape:connector-curvature="0" />
            <path
               inkscape:connector-curvature="0"
               id="path4276"
               d="m 462.52933,954.688 -314.99999,0.18426 157.34164,-275 z"
               inkscape:transform-center-y="-24.818933"
               inkscape:transform-center-x="-0.69287368"
               style="fill:#e63f7d;fill-opacity:1;fill-rule:nonzero;stroke:none" />
          </g>
          <path
             transform="matrix(1.0194175,0,0,1.3461538,77.891811,179.84125)"
             d="m 255.71429,183.07646 c 0,15.38508 -16.46953,27.85715 -36.78572,27.85715 -20.31618,0 -36.78571,-12.47207 -36.78571,-27.85715 0,-15.38507 16.46953,-27.85714 36.78571,-27.85714 20.31619,0 36.78572,12.47207 36.78572,27.85714 z"
             sodipodi:ry="27.857143"
             sodipodi:rx="36.785713"
             sodipodi:cy="183.07646"
             sodipodi:cx="218.92857"
             id="path4302"
             style="fill:#e63f7d;fill-opacity:1;fill-rule:nonzero;stroke:none"
             sodipodi:type="arc" />
        </g>
      </g>
      <path
         transform="matrix(0.99310901,0,0,0.57543968,113.7323,285.78537)"
         d="m 211.12189,254.34167 c 0,27.33671 -10.62813,49.49748 -23.73859,49.49748 -13.11046,0 -23.73858,-22.16077 -23.73858,-49.49748 0,-27.3367 10.62812,-49.49747 23.73858,-49.49747 13.11046,0 23.73859,22.16077 23.73859,49.49747 z"
         sodipodi:ry="49.497475"
         sodipodi:rx="23.738585"
         sodipodi:cy="254.34167"
         sodipodi:cx="187.3833"
         id="path3800"
         style="fill:#5c1201;fill-opacity:1;fill-rule:nonzero;stroke:#5c1201;stroke-width:3;stroke-linecap:round;stroke-linejoin:miter;stroke-miterlimit:4;stroke-opacity:1;stroke-dasharray:none"
         sodipodi:type="arc" />
      <g
         id="g4571"
         transform="translate(-26.428572,34.999999)">
        <g
           transform="matrix(0.96052724,0,0,1.0790812,0,-11.384147)"
           style="font-size:101.55003357px;font-style:normal;font-weight:bold;line-height:125%;letter-spacing:0px;word-spacing:0px;fill:#ffffff;fill-opacity:1;stroke:#5c1201;stroke-width:6;stroke-linecap:round;stroke-linejoin:round;stroke-miterlimit:4;stroke-opacity:1;stroke-dasharray:none;font-family:Sans;-inkscape-font-specification:Sans Bold"
           id="text4587">
          <path
             d="m 316.70373,411.38422 13.88379,-1.43796 c 0.39667,3.1404 1.57018,5.62791 3.52054,7.46254 1.95032,1.83465 4.19817,2.75197 6.74355,2.75196 2.90896,1e-5 5.37168,-1.18176 7.38817,-3.54532 2.01641,-2.36354 3.02464,-5.92539 3.02468,-10.68557 -4e-5,-4.46261 -1,-7.8096 -2.99989,-10.04095 -1.99996,-2.23129 -4.60317,-3.34695 -7.80964,-3.34699 -3.99987,4e-5 -7.58652,1.76857 -10.75994,5.30559 l -11.30537,-1.6363 7.14024,-37.83334 36.84163,0 0,13.04085 -26.28003,0 -2.18174,12.34666 c 3.1073,-1.55361 6.28073,-2.33045 9.52031,-2.33049 6.18156,4e-5 11.42103,2.24789 15.71844,6.74355 4.29731,4.49574 6.44599,10.33024 6.44605,17.5035 -6e-5,5.98327 -1.73553,11.32192 -5.20642,16.01595 -4.72715,6.41299 -11.28889,9.61948 -19.68524,9.61948 -6.71052,0 -12.18139,-1.80158 -16.41263,-5.40476 -4.23126,-3.60317 -6.76009,-8.44596 -7.5865,-14.5284 z"
             style="fill:#ffffff;fill-opacity:1;stroke:#5c1201;stroke-width:6;stroke-linecap:round;stroke-linejoin:round;stroke-miterlimit:4;stroke-opacity:1;stroke-dasharray:none"
             id="path4592"
             inkscape:connector-curvature="0" />
        </g>
      </g>
    </g>
  </g>
  <g
     inkscape:label="Layer 1"
     inkscape:groupmode="layer"
     id="layer1"
     transform="translate(-251,-382.92488)" />
</svg>
