<?xml version="1.0" encoding="UTF-8" standalone="no"?>
<!-- Created with Inkscape (http://www.inkscape.org/) -->

<svg
   xmlns:dc="http://purl.org/dc/elements/1.1/"
   xmlns:cc="http://creativecommons.org/ns#"
   xmlns:rdf="http://www.w3.org/1999/02/22-rdf-syntax-ns#"
   xmlns:svg="http://www.w3.org/2000/svg"
   xmlns="http://www.w3.org/2000/svg"
   xmlns:sodipodi="http://sodipodi.sourceforge.net/DTD/sodipodi-0.dtd"
   xmlns:inkscape="http://www.inkscape.org/namespaces/inkscape"
   width="209.6091"
   height="210.4066"
   id="svg2"
   version="1.1"
   inkscape:version="0.48.5 r10040"
   sodipodi:docname="Money8.svg">
  <defs
     id="defs4">
    <inkscape:perspective
       sodipodi:type="inkscape:persp3d"
       inkscape:vp_x="145.46197 : 276.67341 : 1"
       inkscape:vp_y="0 : 1000 : 0"
       inkscape:vp_z="637.01831 : 307.98814 : 1"
       inkscape:persp3d-origin="264.97107 : 132.59444 : 1"
       id="perspective3869" />
  </defs>
  <sodipodi:namedview
     id="base"
     pagecolor="#ffffff"
     bordercolor="#666666"
     borderopacity="1.0"
     inkscape:pageopacity="0.0"
     inkscape:pageshadow="2"
     inkscape:zoom="0.7"
     inkscape:cx="28.091905"
     inkscape:cy="22.814801"
     inkscape:document-units="px"
     inkscape:current-layer="g3985"
     showgrid="false"
     inkscape:window-width="944"
     inkscape:window-height="904"
     inkscape:window-x="710"
     inkscape:window-y="81"
     inkscape:window-maximized="0"
     fit-margin-top="0"
     fit-margin-left="0"
     fit-margin-right="0"
     fit-margin-bottom="0" />
  <metadata
     id="metadata7">
    <rdf:RDF>
      <cc:Work
         rdf:about="">
        <dc:format>image/svg+xml</dc:format>
        <dc:type
           rdf:resource="http://purl.org/dc/dcmitype/StillImage" />
        <dc:title></dc:title>
      </cc:Work>
    </rdf:RDF>
  </metadata>
  <g
     inkscape:groupmode="layer"
     id="layer2"
     inkscape:label="Layer"
     transform="translate(-310.90113,-288.57986)">
    <flowRoot
       xml:space="preserve"
       id="flowRoot4350"
       style="font-size:40px;font-style:normal;font-weight:normal;line-height:125%;letter-spacing:0px;word-spacing:0px;fill:#000000;fill-opacity:1;stroke:none;font-family:Sans"><flowRegion
         id="flowRegion4352"><rect
           id="rect4354"
           width="105.71429"
           height="102.85714"
           x="325.71429"
           y="52.362183" /></flowRegion><flowPara
         id="flowPara4356" /></flowRoot>  </g>
  <g
     inkscape:label="Layer 1"
     inkscape:groupmode="layer"
     id="layer1"
     style="display:inline"
     transform="translate(-310.90113,-288.57986)">
    <g
       id="g4371">
      <g
         id="g3985">
        <path
           sodipodi:type="arc"
           style="fill:#ffffff;fill-opacity:1;fill-rule:nonzero;stroke:none"
           id="path4358"
           sodipodi:cx="318.57144"
           sodipodi:cy="309.50504"
           sodipodi:rx="182.85715"
           sodipodi:ry="180"
           d="m 501.42859,309.50504 c 0,99.41125 -81.86793,180 -182.85715,180 -100.98921,0 -182.85715,-80.58875 -182.85715,-180 0,-99.41126 81.86794,-180 182.85715,-180 100.98922,0 182.85715,80.58874 182.85715,180 z"
           transform="matrix(0.54003905,0,0,0.5486111,243.66467,223.98527)" />
        <path
           style="font-size:medium;font-style:normal;font-variant:normal;font-weight:normal;font-stretch:normal;text-indent:0;text-align:start;text-decoration:none;line-height:normal;letter-spacing:normal;word-spacing:normal;text-transform:none;direction:ltr;block-progression:tb;writing-mode:lr-tb;text-anchor:start;baseline-shift:baseline;color:#000000;fill:#5c1201;fill-opacity:1;fill-rule:nonzero;stroke:none;stroke-width:19.98456001;marker:none;visibility:visible;display:inline;overflow:visible;enable-background:accumulate;font-family:Sans;-inkscape-font-specification:Sans"
           d="m 415.70569,288.57986 c -57.63012,0 -104.80456,46.94258 -104.80456,105.21144 0,58.26886 47.17444,105.19516 104.80456,105.19516 57.6301,0 104.80454,-46.9263 104.80454,-105.19516 0,-58.26886 -47.17444,-105.21144 -104.80454,-105.21144 z m 0,10.40893 c 52.82684,0 95.19758,42.61442 95.19758,94.80251 0,52.18808 -42.37074,90.51679 -95.19758,90.51679 -52.82685,0 -95.18257,-38.32871 -95.18257,-90.51679 0,-52.18809 42.35572,-94.80251 95.18257,-94.80251 z"
           id="path4336"
           inkscape:connector-curvature="0"
           sodipodi:nodetypes="ssssssssss" />
        <path
           sodipodi:type="arc"
           style="fill:#a76f37;fill-opacity:1;fill-rule:nonzero;stroke:none"
           id="path4340"
           sodipodi:cx="430.71429"
           sodipodi:cy="389.50504"
           sodipodi:rx="120.71429"
           sodipodi:ry="130"
           d="m 551.42858,389.50504 c 0,71.79701 -54.04563,130 -120.71429,130 -66.66866,0 -120.71428,-58.20299 -120.71428,-130 0,-71.79702 54.04562,-130 120.71428,-130 66.66866,0 120.71429,58.20298 120.71429,130 z"
           transform="matrix(0.72485205,0,0,0.6730769,103.50154,130.11633)" />
        <path
           style="font-size:medium;font-style:normal;font-variant:normal;font-weight:normal;font-stretch:normal;text-indent:0;text-align:start;text-decoration:none;line-height:normal;letter-spacing:normal;word-spacing:normal;text-transform:none;direction:ltr;block-progression:tb;writing-mode:lr-tb;text-anchor:start;baseline-shift:baseline;color:#000000;fill:#eae7c8;fill-opacity:1;fill-rule:nonzero;stroke:none;stroke-width:3.31160808;marker:none;visibility:visible;display:inline;overflow:visible;enable-background:accumulate;font-family:Sans;-inkscape-font-specification:Sans"
           d="m 468.14784,337.59567 c 42.47742,44.33069 10.47156,101.17228 10.47156,101.17228 0,0 39.29406,-54.68765 -7.87157,-103.74534 -55.91945,-58.16268 -117.084,6.35127 -117.084,6.35127 0,0 63.58877,-56.89399 114.48401,-3.77821 z"
           id="path4342"
           inkscape:connector-curvature="0"
           sodipodi:nodetypes="scscs" />
        <g
           transform="scale(0.98365684,1.0166147)"
           style="font-size:116.81768799px;font-style:normal;font-weight:normal;line-height:125%;letter-spacing:0px;word-spacing:0px;fill:#ffffff;fill-opacity:1;stroke:none;font-family:Sans"
           id="text4346">
          <path
             d="m 397.17271,407.65371 9.8679,-0.91264 c 0.83657,4.63926 2.43368,8.00461 4.79135,10.09606 2.35762,2.09148 5.38074,3.13721 9.06934,3.1372 3.15617,10e-6 5.92261,-0.7225 8.2993,-2.16752 2.37663,-1.445 4.32549,-3.37484 5.84659,-5.78955 1.52102,-2.41467 2.79491,-5.67544 3.82168,-9.78234 1.02666,-4.10684 1.54002,-8.28976 1.54007,-12.54877 -5e-5,-0.45628 -0.0191,-1.14076 -0.057,-2.05344 -2.05348,3.27033 -4.85794,5.92268 -8.41338,7.95707 -3.55552,2.03445 -7.40571,3.05166 -11.55058,3.05163 -6.92086,3e-5 -12.77695,-2.50972 -17.56828,-7.52926 -4.79136,-5.01947 -7.18703,-11.63609 -7.18703,-19.84988 0,-8.47987 2.50024,-15.30564 7.50075,-20.47732 5.00048,-5.17154 11.26535,-7.75734 18.79464,-7.75743 5.43776,9e-5 10.40974,1.46411 14.91593,4.39207 4.5061,2.92813 7.92849,7.10154 10.26718,12.52026 2.33858,5.41885 3.50789,13.26182 3.50795,23.52895 -6e-5,10.68551 -1.15987,19.19395 -3.47943,25.52535 -2.31968,6.33144 -5.77059,11.1513 -10.35274,14.45961 -4.58225,3.30832 -9.9535,4.96247 -16.11377,4.96247 -6.5406,0 -11.88333,-1.81577 -16.02821,-5.44731 -4.1449,-3.63153 -6.63564,-8.73659 -7.47222,-15.31521 z m 42.03839,-36.9048 c -4e-5,-5.89406 -1.56864,-10.57133 -4.70579,-14.03182 -3.13723,-3.46034 -6.91137,-5.19055 -11.32241,-5.19063 -4.56322,8e-5 -8.537,1.86338 -11.92134,5.58991 -3.38438,3.72668 -5.07657,8.55605 -5.07655,14.48813 -2e-5,5.32378 1.60661,9.6493 4.81987,12.97658 3.21322,3.32736 7.17749,4.99103 11.89282,4.99099 4.75328,4e-5 8.66051,-1.66363 11.72169,-4.99099 3.0611,-3.32728 4.59167,-7.938 4.59171,-13.83217 z"
             style=""
             id="path4015" />
        </g>
      </g>
    </g>
  </g>
</svg>
