<?xml version="1.0" encoding="UTF-8" standalone="no"?>
<!-- Created with Inkscape (http://www.inkscape.org/) -->

<svg
   xmlns:dc="http://purl.org/dc/elements/1.1/"
   xmlns:cc="http://creativecommons.org/ns#"
   xmlns:rdf="http://www.w3.org/1999/02/22-rdf-syntax-ns#"
   xmlns:svg="http://www.w3.org/2000/svg"
   xmlns="http://www.w3.org/2000/svg"
   xmlns:sodipodi="http://sodipodi.sourceforge.net/DTD/sodipodi-0.dtd"
   xmlns:inkscape="http://www.inkscape.org/namespaces/inkscape"
   width="209.6091"
   height="210.4066"
   id="svg2"
   version="1.1"
   inkscape:version="0.48.5 r10040"
   sodipodi:docname="Money18.svg">
  <defs
     id="defs4">
    <inkscape:perspective
       sodipodi:type="inkscape:persp3d"
       inkscape:vp_x="145.46197 : 276.67341 : 1"
       inkscape:vp_y="0 : 1000 : 0"
       inkscape:vp_z="637.01831 : 307.98814 : 1"
       inkscape:persp3d-origin="264.97107 : 132.59444 : 1"
       id="perspective3869" />
  </defs>
  <sodipodi:namedview
     id="base"
     pagecolor="#ffffff"
     bordercolor="#666666"
     borderopacity="1.0"
     inkscape:pageopacity="0.0"
     inkscape:pageshadow="2"
     inkscape:zoom="0.7"
     inkscape:cx="83.935775"
     inkscape:cy="25.642315"
     inkscape:document-units="px"
     inkscape:current-layer="g5621"
     showgrid="false"
     inkscape:window-width="944"
     inkscape:window-height="904"
     inkscape:window-x="119"
     inkscape:window-y="61"
     inkscape:window-maximized="0"
     fit-margin-top="0"
     fit-margin-left="0"
     fit-margin-right="0"
     fit-margin-bottom="0" />
  <metadata
     id="metadata7">
    <rdf:RDF>
      <cc:Work
         rdf:about="">
        <dc:format>image/svg+xml</dc:format>
        <dc:type
           rdf:resource="http://purl.org/dc/dcmitype/StillImage" />
        <dc:title></dc:title>
      </cc:Work>
    </rdf:RDF>
  </metadata>
  <g
     inkscape:groupmode="layer"
     id="layer2"
     inkscape:label="Layer"
     transform="translate(-310.90113,-288.57986)">
    <flowRoot
       xml:space="preserve"
       id="flowRoot4350"
       style="font-size:40px;font-style:normal;font-weight:normal;line-height:125%;letter-spacing:0px;word-spacing:0px;fill:#000000;fill-opacity:1;stroke:none;font-family:Sans"><flowRegion
         id="flowRegion4352"><rect
           id="rect4354"
           width="105.71429"
           height="102.85714"
           x="325.71429"
           y="52.362183" /></flowRegion><flowPara
         id="flowPara4356" /></flowRoot>  </g>
  <g
     inkscape:label="Layer 1"
     inkscape:groupmode="layer"
     id="layer1"
     style="display:inline"
     transform="translate(-310.90113,-288.57986)">
    <g
       id="g4371">
      <g
         id="g5621"
         transform="matrix(0.5,0,0,0.5,207.85284,196.89158)">
        <path
           sodipodi:type="arc"
           style="fill:#ffffff;fill-opacity:1;fill-rule:nonzero;stroke:none"
           id="path4358"
           sodipodi:cx="318.57144"
           sodipodi:cy="309.50504"
           sodipodi:rx="182.85715"
           sodipodi:ry="180"
           d="m 501.42859,309.50504 c 0,99.41125 -81.86793,180 -182.85715,180 -100.98921,0 -182.85715,-80.58875 -182.85715,-180 0,-99.41126 81.86794,-180 182.85715,-180 100.98922,0 182.85715,80.58874 182.85715,180 z"
           transform="matrix(1.0800781,0,0,1.0972222,71.623653,54.187374)" />
        <path
           style="font-size:medium;font-style:normal;font-variant:normal;font-weight:normal;font-stretch:normal;text-indent:0;text-align:start;text-decoration:none;line-height:normal;letter-spacing:normal;word-spacing:normal;text-transform:none;direction:ltr;block-progression:tb;writing-mode:lr-tb;text-anchor:start;baseline-shift:baseline;color:#000000;fill:#5c1201;fill-opacity:1;fill-rule:nonzero;stroke:none;stroke-width:19.98456001;marker:none;visibility:visible;display:inline;overflow:visible;enable-background:accumulate;font-family:Sans;-inkscape-font-specification:Sans"
           d="m 415.70569,183.37657 c -115.26022,0 -209.6091,93.88515 -209.6091,210.42287 0,116.53772 94.34888,210.39033 209.6091,210.39033 115.26022,0 209.6091,-93.85261 209.6091,-210.39033 0,-116.53772 -94.34888,-210.42287 -209.6091,-210.42287 z m 0,20.81785 c 105.65369,0 190.39518,85.22884 190.39518,189.60502 0,104.37617 -84.74149,181.03359 -190.39518,181.03359 -105.65369,0 -190.36512,-76.65742 -190.36512,-181.03359 0,-104.37618 84.71143,-189.60502 190.36512,-189.60502 z"
           id="path4336"
           inkscape:connector-curvature="0"
           sodipodi:nodetypes="ssssssssss" />
        <path
           sodipodi:type="arc"
           style="fill:#a76f37;fill-opacity:1;fill-rule:nonzero;stroke:none"
           id="path4340"
           sodipodi:cx="430.71429"
           sodipodi:cy="389.50504"
           sodipodi:rx="120.71429"
           sodipodi:ry="130"
           d="m 551.42858,389.50504 c 0,71.79701 -54.04563,130 -120.71429,130 -66.66866,0 -120.71428,-58.20299 -120.71428,-130 0,-71.79702 54.04562,-130 120.71428,-130 66.66866,0 120.71429,58.20298 120.71429,130 z"
           transform="matrix(1.4497041,0,0,1.3461538,-208.70259,-133.55049)" />
        <path
           style="font-size:medium;font-style:normal;font-variant:normal;font-weight:normal;font-stretch:normal;text-indent:0;text-align:start;text-decoration:none;line-height:normal;letter-spacing:normal;word-spacing:normal;text-transform:none;direction:ltr;block-progression:tb;writing-mode:lr-tb;text-anchor:start;baseline-shift:baseline;color:#000000;fill:#eae7c8;fill-opacity:1;fill-rule:nonzero;stroke:none;stroke-width:3.31160808;marker:none;visibility:visible;display:inline;overflow:visible;enable-background:accumulate;font-family:Sans;-inkscape-font-specification:Sans"
           d="m 520.59,281.40818 c 84.95483,88.66137 20.94312,202.34456 20.94312,202.34456 0,0 78.58812,-109.3753 -15.74313,-207.49067 -111.83892,-116.32537 -234.16802,12.70254 -234.16802,12.70254 0,0 127.17754,-113.78799 228.96803,-7.55643 z"
           id="path4342"
           inkscape:connector-curvature="0"
           sodipodi:nodetypes="scscs" />
        <g
           transform="scale(0.98365684,1.0166147)"
           style="font-size:233.63537598px;font-style:normal;font-weight:normal;line-height:125%;letter-spacing:0px;word-spacing:0px;fill:#ffffff;fill-opacity:1;stroke:none;font-family:Sans"
           id="text4346">
          <path
             d="m 372.53148,469.88422 -20.53436,0 0,-130.8495 c -4.94351,4.71542 -11.42704,9.43071 -19.4506,14.14589 -8.02365,4.71541 -15.22968,8.25188 -21.61811,10.60942 l 0,-19.84988 c 11.48399,-5.39965 21.523,-11.94022 30.11706,-19.62172 8.59394,-7.68122 14.67819,-15.13443 18.25276,-22.35964 l 13.23325,0 z"
             style=""
             id="path5680" />
          <path
             d="m 428.3165,431.21117 19.7358,-1.82527 c 1.67314,9.27852 4.86737,16.00922 9.5827,20.19212 4.71525,4.18294 10.76147,6.2744 18.13869,6.27438 6.31234,2e-5 11.84521,-1.44499 16.5986,-4.33503 4.75325,-2.89 8.65097,-6.74969 11.69318,-11.57909 3.04204,-4.82935 5.58982,-11.3509 7.64335,-19.56469 2.05333,-8.21368 3.08005,-16.57952 3.08015,-25.09755 -10e-5,-0.91256 -0.0381,-2.28151 -0.11408,-4.10687 -4.10697,6.54065 -9.71588,11.84535 -16.82677,15.91413 -7.11105,4.06891 -14.81142,6.10333 -23.10115,6.10327 -13.84173,6e-5 -25.5539,-5.01945 -35.13657,-15.05853 -9.58272,-10.03894 -14.37406,-23.27218 -14.37405,-39.69976 -1e-5,-16.95973 5.00048,-30.61127 15.00149,-40.95464 10.00096,-10.34307 22.53071,-15.51468 37.58928,-15.51485 10.87553,1.7e-4 20.81948,2.92821 29.83186,8.78414 9.0122,5.85625 15.85698,14.20308 20.53436,25.04051 4.67716,10.8377 7.01579,26.52366 7.01591,47.05791 -1.2e-4,21.37101 -2.31974,38.38789 -6.95887,51.0507 -4.63935,12.66288 -11.54117,22.30261 -20.70548,28.91922 -9.16449,6.61663 -19.90699,9.92494 -32.22753,9.92494 -13.0812,0 -23.76666,-3.63154 -32.05642,-10.89462 -8.28982,-7.26306 -13.27129,-17.47319 -14.94445,-30.63042 z m 84.07679,-73.80961 c -9e-5,-11.78812 -3.13728,-21.14265 -9.41158,-28.06362 -6.27447,-6.9207 -13.82274,-10.38111 -22.64483,-10.38126 -9.12644,1.5e-4 -17.07399,3.72675 -23.84268,11.17981 -6.76876,7.45335 -10.15313,17.11209 -10.1531,28.97627 -3e-5,10.64754 3.21322,19.29858 9.63975,25.95314 6.42644,6.65474 14.35498,9.98206 23.78563,9.98198 9.50657,8e-5 17.32103,-3.32724 23.44339,-9.98198 6.12219,-6.65456 9.18333,-15.876 9.18342,-27.66434 z"
             style=""
             id="path5682" />
        </g>
      </g>
    </g>
  </g>
</svg>
