<?xml version="1.0" encoding="UTF-8" standalone="no"?>
<svg
   xmlns:dc="http://purl.org/dc/elements/1.1/"
   xmlns:cc="http://creativecommons.org/ns#"
   xmlns:rdf="http://www.w3.org/1999/02/22-rdf-syntax-ns#"
   xmlns:svg="http://www.w3.org/2000/svg"
   xmlns="http://www.w3.org/2000/svg"
   xmlns:sodipodi="http://sodipodi.sourceforge.net/DTD/sodipodi-0.dtd"
   xmlns:inkscape="http://www.inkscape.org/namespaces/inkscape"
   version="1.1"
   x="0px"
   y="0px"
   viewBox="0 0 83.706233 79.471111"
   enable-background="new 0 0 100 100"
   xml:space="preserve"
   id="svg6970"
   inkscape:version="0.48.5 r10040"
   width="100%"
   height="100%"
   sodipodi:docname="Reputation.svg"><metadata
     id="metadata7040"><rdf:RDF><cc:Work
         rdf:about=""><dc:format>image/svg+xml</dc:format><dc:type
           rdf:resource="http://purl.org/dc/dcmitype/StillImage" /><dc:title></dc:title></cc:Work></rdf:RDF></metadata><defs
     id="defs7038"><inkscape:path-effect
       effect="envelope"
       id="path-effect7118"
       is_visible="true"
       yy="true"
       xx="true"
       bendpath1="m 53.443,10.422 43.018,0"
       bendpath2="m 96.461,10.422 0,78.975339"
       bendpath3="m 53.443,89.397339 43.018,0"
       bendpath4="M 141.15486,22.710136 53.443,89.397339"
       bendpath4-nodetypes="cc" /></defs><sodipodi:namedview
     pagecolor="#ffffff"
     bordercolor="#666666"
     borderopacity="1"
     objecttolerance="10"
     gridtolerance="10"
     guidetolerance="10"
     inkscape:pageopacity="0"
     inkscape:pageshadow="2"
     inkscape:window-width="982"
     inkscape:window-height="574"
     id="namedview7036"
     showgrid="false"
     fit-margin-top="0"
     fit-margin-left="0"
     fit-margin-right="0"
     fit-margin-bottom="0"
     inkscape:zoom="2.36"
     inkscape:cx="67.724334"
     inkscape:cy="48.132777"
     inkscape:window-x="704"
     inkscape:window-y="259"
     inkscape:window-maximized="0"
     inkscape:current-layer="svg6970" /><g
     id="g7098"
     inkscape:path-effect="#path-effect7118"
     transform="translate(-12.736297,-10.98178)"
     style="fill:#ffffff;fill-opacity:1"><path
       id="path7004"
       d="m 59.383796,82.323273 c -1.0868,1.009065 -2.000384,2.286668 -2.375626,3.488666 -0.375242,1.201998 -0.208836,2.307964 0.301832,3.106259 0.510668,0.798295 1.330646,1.299803 2.007981,1.468808 0.677335,0.169004 1.18614,0.01702 1.285087,-0.503992 0.09895,-0.521009 -0.244082,-1.052637 -0.676033,-1.629234 -0.431951,-0.576597 -0.941977,-1.206524 -1.243819,-1.913279 -0.301843,-0.706754 -0.383118,-1.499367 -0.22349,-2.242321 0.159628,-0.742954 0.538852,-1.417244 0.924068,-1.774907 z"
       inkscape:original-d="m 53.443,81.525 c 0,4.641 7.635,9.691 7.635,7.225 0,-2.466 -7.635,-5.58 -7.635,-7.225 z"
       inkscape:connector-curvature="0"
       style="fill:#ffffff;fill-opacity:1" /><path
       id="path7006"
       d="m 61.517409,80.669607 c 0,0 -0.213417,0.216714 -0.49896,0.590439 -0.285544,0.373724 -0.64144,0.907104 -0.842522,1.491874 -0.201082,0.584769 -0.240349,1.219348 0.124547,1.73316 0.364897,0.513813 1.141657,0.896234 2.471648,1.003953 1.329906,0.107926 2.673095,0.01228 3.832331,-0.118075 1.159236,-0.130357 2.148183,-0.305945 2.931797,-0.473076 1.567228,-0.334262 2.322844,-0.652952 2.322844,-0.652952 0,0 -1.051189,-0.66661 -2.39872,-1.290967 C 68.786609,82.641785 68.046178,82.339632 67.319002,82.116716 66.591826,81.8938 65.882468,81.74877 65.18617,81.7395 c -0.696412,-0.0091 -1.319123,-0.0215 -1.823076,-0.0781 -0.503953,-0.05661 -0.888936,-0.159697 -1.162946,-0.299057 -0.27401,-0.139359 -0.439706,-0.31319 -0.54058,-0.453279 -0.100875,-0.140088 -0.142159,-0.239455 -0.142159,-0.239455 0,0 0,0 0,0 z"
       inkscape:original-d="m 53.923,79.356 c 0,0 1.15,3.427 8.086,4.166 6.936,0.74 9.895,-0.739 9.895,-0.739 0,0 -4.624,-3.605 -9.063,-3.791 -4.439,-0.185 -8.918,0.364 -8.918,0.364 z"
       inkscape:connector-curvature="0"
       style="fill:#ffffff;fill-opacity:1" /><path
       id="path7008"
       d="m 61.517409,80.669607 c 0,0 0.217592,-0.206401 0.614902,-0.528067 0.397311,-0.321665 0.977157,-0.755804 1.657119,-1.224377 0.679962,-0.468574 1.452042,-0.967211 2.226743,-1.49038 0.774701,-0.523169 1.537876,-1.074487 2.370839,-1.738587 0.832766,-0.663865 1.542281,-1.27413 2.170247,-1.763843 0.627965,-0.489713 1.16962,-0.862455 1.613437,-1.125728 0.887635,-0.526547 1.357805,-0.6143 1.357805,-0.6143 0,0 -0.808475,1.062397 -2.120011,2.437549 -0.655768,0.687576 -1.438686,1.453909 -2.297367,2.199568 -0.858681,0.745659 -1.797525,1.474027 -2.713346,2.050212 -0.748409,0.470818 -1.451211,0.863101 -2.066439,1.154065 -0.615227,0.290963 -1.142561,0.478999 -1.562484,0.58014 -0.839844,0.202282 -1.251445,0.06375 -1.251445,0.06375 z"
       inkscape:original-d="m 53.923,79.356 c 0,0 -0.522,-3.585 5.222,-7.542 5.745,-3.956 9.052,-4.066 9.052,-4.066 0,0 -1.897,4.885 -6.521,7.745 -3.779,2.337 -7.753,3.863 -7.753,3.863 z"
       inkscape:connector-curvature="0"
       style="fill:#ffffff;fill-opacity:1" /><path
       id="path7010"
       d="m 65.864774,79.964131 c 0,0 0.641768,-0.323309 1.772195,-0.724095 1.130427,-0.400787 2.782824,-0.902268 4.96632,-1.042301 2.184722,-0.140112 4.17802,0.406892 5.621796,0.99954 1.443776,0.592647 2.325226,1.209915 2.325226,1.209915 0,0 -0.996754,0.2865 -2.667897,0.576843 -0.835571,0.145172 -1.840175,0.294565 -2.962894,0.429421 -1.122719,0.134856 -2.366195,0.257714 -3.64421,0.336153 -1.277841,0.07863 -2.312959,0.03277 -3.099844,-0.102524 -0.786884,-0.135294 -1.324347,-0.36014 -1.669767,-0.608171 -0.69084,-0.496062 -0.640925,-1.074781 -0.640925,-1.074781 z"
       inkscape:original-d="m 62.147,76.818 c 0,0 3.538,-1.596 8.877,-1.596 5.342,0 9.365,2.775 9.365,2.775 0,0 -3.954,1.594 -9.642,1.594 -5.687,0.001 -8.6,-2.773 -8.6,-2.773 z"
       inkscape:connector-curvature="0"
       style="fill:#ffffff;fill-opacity:1" /><path
       id="path7012"
       d="m 71.417525,76.862167 c 0,0 0.418214,-0.796062 1.298801,-2.110196 0.880586,-1.314135 2.220062,-3.149503 3.920758,-5.24331 1.701394,-2.094697 3.378784,-3.722636 4.688772,-4.809227 1.309987,-1.08659 2.238567,-1.638468 2.238567,-1.638468 0,0 -0.380723,0.979341 -1.213869,2.504925 -0.833147,1.525584 -2.127219,3.585873 -3.952317,5.764729 -1.826102,2.178474 -3.607318,3.52974 -4.897413,4.372293 -1.290095,0.842554 -2.083299,1.159254 -2.083299,1.159254 0,0 0,0 0,0 z"
       inkscape:original-d="m 68.686,73.42 c 0,0 0.287,-3.87 2.835,-8.562 2.549,-4.694 6.907,-6.904 6.907,-6.904 0,0 -0.485,4.235 -3.198,9.233 -2.716,4.997 -6.544,6.233 -6.544,6.233 z"
       inkscape:connector-curvature="0"
       style="fill:#ffffff;fill-opacity:1" /><path
       id="path7014"
       d="m 73.565401,76.307602 c 0,0 0.78001,-0.534225 2.147194,-1.209069 1.367184,-0.674843 3.332875,-1.472615 5.743935,-2.02036 2.410741,-0.548172 4.548776,-0.488197 6.095841,-0.395589 1.547065,0.09261 2.509769,0.248778 2.509769,0.248778 0,0 -0.848756,0.768287 -2.386966,1.608501 -0.769106,0.420106 -1.711125,0.85332 -2.798021,1.23587 -1.086896,0.38255 -2.319192,0.714695 -3.65497,0.976126 -1.335733,0.261219 -2.509861,0.347652 -3.499823,0.349298 -0.989962,0.0016 -1.794776,-0.08463 -2.414847,-0.200494 -1.240142,-0.231732 -1.742112,-0.593061 -1.742112,-0.593061 0,0 0,0 0,0 z"
       inkscape:original-d="m 71.353,72.937 c 0,0 3.064,-2.38 8.257,-3.63 5.192,-1.251 9.752,0.504 9.752,0.504 0,0 -3.47,2.478 -8.999,3.81 -5.529,1.331 -9.01,-0.684 -9.01,-0.684 z"
       inkscape:connector-curvature="0"
       style="fill:#ffffff;fill-opacity:1" /><path
       id="path7016"
       d="m 78.483919,72.695534 c 0,0 0.633527,-0.724672 1.804868,-1.813955 1.17134,-1.089284 2.883488,-2.52925 4.999677,-4.050085 1.0585,-0.760439 2.08191,-1.385734 3.01349,-1.927584 0.93158,-0.54185 1.770454,-1.003135 2.470175,-1.402642 1.399443,-0.799016 2.252463,-1.351685 2.252463,-1.351685 0,0 -0.482079,1.128785 -1.542071,2.697319 -1.059991,1.568533 -2.730359,3.522851 -5.030411,5.175218 -2.299951,1.651919 -4.365052,2.232788 -5.778493,2.496967 -1.413442,0.26418 -2.189698,0.176447 -2.189698,0.176447 0,0 0,0 0,0 z"
       inkscape:original-d="m 75.948,68.811 c 0,0 1.909,-3.378 6.214,-6.538 4.307,-3.16 9.19,-3.304 9.19,-3.304 0,0 -2.243,3.625 -6.828,6.991 -4.585,3.365 -8.576,2.851 -8.576,2.851 z"
       inkscape:connector-curvature="0"
       style="fill:#ffffff;fill-opacity:1" /><path
       id="path7018"
       d="m 84.068813,66.52532 c 0,0 -0.03372,-0.762172 0.15434,-2.113717 0.188054,-1.351545 0.613442,-3.293024 1.367958,-5.698125 0.754981,-2.4056 1.753644,-4.578404 2.538649,-6.159576 0.785005,-1.581171 1.379713,-2.565292 1.379713,-2.565292 0,0 0.260993,3.788525 -1.140502,8.957186 -0.700071,2.582857 -1.761158,4.487837 -2.665233,5.734201 -0.904076,1.246365 -1.634925,1.845323 -1.634925,1.845323 z"
       inkscape:original-d="m 80.512,61.863 c 0,0 -1.292,-3.459 -0.955,-8.528 0.338,-5.07 3.225,-8.714 3.225,-8.714 0,0 1.266,3.854 0.906,9.254 -0.359,5.397 -3.176,7.988 -3.176,7.988 z"
       inkscape:connector-curvature="0"
       style="fill:#ffffff;fill-opacity:1" /><path
       id="path7020"
       d="m 87.687109,63.329292 c 0,0 0.431176,-0.733496 1.228789,-1.915437 0.797613,-1.181941 1.969133,-2.792411 3.304503,-4.772347 0.667884,-0.990279 1.292845,-1.90827 1.832337,-2.779407 0.539491,-0.871138 0.992978,-1.697832 1.347871,-2.445027 0.709786,-1.494389 1.041921,-2.663288 1.041921,-2.663288 0,0 -0.112151,1.237882 -0.532017,3.143197 -0.419865,1.905315 -1.17901,4.451965 -2.54536,6.800772 -1.366675,2.349012 -2.849759,3.457567 -3.925894,4.024894 -1.076135,0.567327 -1.75215,0.606643 -1.75215,0.606643 z"
       inkscape:original-d="m 84.135,58.586 c 0,0 1.328,-3.078 4.735,-6.188 3.408,-3.111 7.591,-3.684 7.591,-3.684 0,0 -1.595,3.321 -5.223,6.633 -3.629,3.312 -7.103,3.239 -7.103,3.239 z"
       inkscape:connector-curvature="0"
       style="fill:#ffffff;fill-opacity:1" /><path
       id="path7022"
       d="m 90.533675,56.606067 c 0,0 0.183343,-0.811657 0.603837,-2.18769 0.420495,-1.376032 1.081967,-3.308887 1.922251,-5.646443 0.840284,-2.337556 1.685079,-4.391157 2.213343,-6.007015 0.528264,-1.615858 0.766211,-2.770676 0.766211,-2.770676 0,0 -0.04088,0.986917 -0.2206,2.693502 -0.179719,1.706586 -0.495498,4.148355 -1.2393,6.849233 -0.743847,2.701376 -1.757047,4.511511 -2.588774,5.592779 -0.831728,1.081268 -1.456968,1.47631 -1.456968,1.47631 0,0 0,0 0,0 z"
       inkscape:original-d="m 86.188,51.764 c 0,0 0.163,-3.349 2.264,-7.457 2.101,-4.108 5.815,-6.112 5.815,-6.112 0,0 -0.327,3.668 -2.563,8.043 -2.236,4.376 -5.516,5.526 -5.516,5.526 z"
       inkscape:connector-curvature="0"
       style="fill:#ffffff;fill-opacity:1" /><path
       id="path7024"
       d="m 92.87426,46.412428 c 0,0 0.0541,-0.83004 0.243118,-2.27273 0.18902,-1.44269 0.511114,-3.495572 0.988748,-5.97083 0.477653,-2.475782 1.074144,-4.643867 1.464311,-6.289091 0.390167,-1.645223 0.580166,-2.763152 0.580166,-2.763152 0,0 0.01218,0.92473 -0.0434,2.556647 -0.05558,1.631917 -0.16441,3.988374 -0.545217,6.761328 -0.380347,2.773752 -1.017126,4.834497 -1.60261,6.126001 -0.585484,1.291503 -1.085116,1.851827 -1.085116,1.851827 0,0 0,0 0,0 z"
       inkscape:original-d="m 87.624,41.772 c 0,0 -0.289,-3.34 1.239,-7.693 1.528,-4.354 4.94,-6.839 4.94,-6.839 0,0 0.17,3.679 -1.459,8.314 -1.626,4.638 -4.72,6.218 -4.72,6.218 z"
       inkscape:connector-curvature="0"
       style="fill:#ffffff;fill-opacity:1" /><path
       id="path7026"
       d="m 92.588818,39.848359 c 0,0 -0.185663,-0.725893 -0.427281,-2.098019 -0.241619,-1.372126 -0.550424,-3.397573 -0.841834,-5.967739 -0.290708,-2.570221 -0.280007,-4.945739 -0.138623,-6.655985 0.141385,-1.710245 0.406083,-2.761218 0.406083,-2.761218 0,0 0.512723,0.968153 1.029335,2.578099 0.516611,1.609945 1.008627,3.844775 1.174347,6.488346 0.165447,2.644201 -0.151808,4.746044 -0.490454,6.192204 -0.338645,1.44616 -0.711573,2.224312 -0.711573,2.224312 0,0 0,0 0,0 z"
       inkscape:original-d="m 86.24,35.188 c 0,0 -1.533,-2.981 -1.771,-7.589 -0.236,-4.608 1.978,-8.201 1.978,-8.201 0,0 1.553,3.339 1.806,8.246 0.252,4.908 -2.013,7.544 -2.013,7.544 z"
       inkscape:connector-curvature="0"
       style="fill:#ffffff;fill-opacity:1" /><path
       id="path7028"
       d="m 89.847445,31.482904 c 0,0 -0.4261,-0.74369 -1.138022,-2.172323 -0.711922,-1.428632 -1.721586,-3.546819 -3.047279,-6.316877 -1.325693,-2.770057 -2.39676,-5.444896 -3.052968,-7.407509 -0.656208,-1.962614 -0.871265,-3.203663 -0.871265,-3.203663 0,0 1.190604,1.065774 2.670839,2.861211 1.480236,1.795437 3.182489,4.300677 4.38279,7.187978 0.600376,1.443659 0.923668,2.716508 1.108273,3.826578 0.184606,1.11007 0.227695,2.056523 0.215031,2.829045 -0.02533,1.545045 -0.267399,2.39556 -0.267399,2.39556 0,0 0,0 0,0 z"
       inkscape:original-d="m 82.461,27.265 c 0,0 -1.997,-2.692 -2.979,-7.2 -0.982,-4.508 0.618,-8.414 0.618,-8.414 0,0 2.074,3.043 3.121,7.844 1.048,4.801 -0.76,7.77 -0.76,7.77 z"
       inkscape:connector-curvature="0"
       style="fill:#ffffff;fill-opacity:1" /><path
       id="path7030"
       d="m 91.143045,52.432888 c 0,0 -0.312412,-0.444481 -0.694557,-1.423584 -0.382145,-0.979103 -0.821264,-2.496409 -1.156987,-4.605395 -0.335723,-2.108986 -0.363516,-4.31615 -0.358473,-6.00111 0.005,-1.68496 0.07836,-2.840409 0.07836,-2.840409 0,0 0.456257,0.684975 1.022214,1.928393 0.565956,1.243417 1.218096,3.030074 1.612746,5.22041 0.394296,2.190919 0.258821,4.092392 0.03738,5.479745 -0.221437,1.387353 -0.540681,2.24195 -0.540681,2.24195 0,0 0,0 0,0 z"
       inkscape:original-d="m 86.016,47.467 c 0,0 -2.499,-2.236 -4.365,-6.456 -1.866,-4.22 -1.081,-8.368 -1.081,-8.368 0,0 2.643,2.566 4.631,7.059 1.987,4.494 0.815,7.765 0.815,7.765 z"
       inkscape:connector-curvature="0"
       style="fill:#ffffff;fill-opacity:1" /><path
       id="path7032"
       d="m 90.75307,37.140362 c 0,0 -0.524832,-0.224429 -1.364748,-0.885345 C 88.548405,35.5941 87.403719,34.495373 86.158783,32.802049 85.53604,31.955414 84.985718,31.026204 84.472198,30.100368 83.958679,29.174532 83.480596,28.251696 83.049507,27.427844 82.18733,25.78014 81.513688,24.527858 81.513688,24.527858 c 0,0 0.454329,0.284706 1.475191,1.083217 0.51043,0.399256 1.160874,0.92771 1.904774,1.598834 0.7439,0.671124 1.578971,1.484788 2.41429,2.433864 0.834965,0.949085 1.476842,1.89697 1.955296,2.777457 0.478455,0.880487 0.797892,1.695514 1.015134,2.392807 0.434484,1.394588 0.474697,2.326325 0.474697,2.326325 0,0 0,0 0,0 z"
       inkscape:original-d="m 83.255,32.384 c 0,0 -3.191,-1.027 -6.613,-4.121 -3.424,-3.094 -4.394,-7.202 -4.394,-7.202 0,0 3.457,1.268 7.103,4.563 3.644,3.295 3.904,6.76 3.904,6.76 z"
       inkscape:connector-curvature="0"
       style="fill:#ffffff;fill-opacity:1" /><path
       id="path7034"
       d="m 86.03728,26.728503 c 0,0 -0.670673,-0.431326 -1.765435,-1.382791 -0.547381,-0.475732 -1.200697,-1.081014 -1.94512,-1.828594 -0.744423,-0.747579 -1.577756,-1.636928 -2.52418,-2.689568 -0.946884,-1.053255 -1.888358,-2.176725 -2.835979,-3.284561 -0.947621,-1.107837 -1.900695,-2.199837 -2.777006,-3.169971 -1.752624,-1.940268 -3.172518,-3.391233 -3.172518,-3.391233 0,0 0.780157,0.434075 2.406966,1.513525 0.813404,0.539725 1.833291,1.241601 2.987343,2.11581 1.154053,0.874209 2.439446,1.92065 3.733085,3.127578 1.293463,1.206602 2.318116,2.383318 3.109187,3.456654 0.791071,1.073336 1.354232,2.045366 1.760371,2.864016 0.812279,1.6373 1.023286,2.669135 1.023286,2.669135 z"
       inkscape:original-d="m 78.538,23.153 c 0,0 -3.019,-1.458 -5.982,-4.992 -2.964,-3.536 -3.361,-7.739 -3.361,-7.739 0,0 3.252,1.731 6.408,5.497 3.156,3.765 2.935,7.234 2.935,7.234 z"
       inkscape:connector-curvature="0"
       style="fill:#ffffff;fill-opacity:1" /></g><g
     inkscape:path-effect="#path-effect7118"
     id="g7126"
     transform="matrix(-1,0,0,1,96.44253,-10.981785)"
     style="fill:#ffffff;fill-opacity:1"><path
       inkscape:original-d="m 53.443,81.525 c 0,4.641 7.635,9.691 7.635,7.225 0,-2.466 -7.635,-5.58 -7.635,-7.225 z"
       d="m 59.383796,82.323273 c -1.0868,1.009065 -2.000384,2.286668 -2.375626,3.488666 -0.375242,1.201998 -0.208836,2.307964 0.301832,3.106259 0.510668,0.798295 1.330646,1.299803 2.007981,1.468808 0.677335,0.169004 1.18614,0.01702 1.285087,-0.503992 0.09895,-0.521009 -0.244082,-1.052637 -0.676033,-1.629234 -0.431951,-0.576597 -0.941977,-1.206524 -1.243819,-1.913279 -0.301843,-0.706754 -0.383118,-1.499367 -0.22349,-2.242321 0.159628,-0.742954 0.538852,-1.417244 0.924068,-1.774907 z"
       id="path7128"
       inkscape:connector-curvature="0"
       style="fill:#ffffff;fill-opacity:1" /><path
       inkscape:original-d="m 53.923,79.356 c 0,0 1.15,3.427 8.086,4.166 6.936,0.74 9.895,-0.739 9.895,-0.739 0,0 -4.624,-3.605 -9.063,-3.791 -4.439,-0.185 -8.918,0.364 -8.918,0.364 z"
       d="m 61.517409,80.669607 c 0,0 -0.213417,0.216714 -0.49896,0.590439 -0.285544,0.373724 -0.64144,0.907104 -0.842522,1.491874 -0.201082,0.584769 -0.240349,1.219348 0.124547,1.73316 0.364897,0.513813 1.141657,0.896234 2.471648,1.003953 1.329906,0.107926 2.673095,0.01228 3.832331,-0.118075 1.159236,-0.130357 2.148183,-0.305945 2.931797,-0.473076 1.567228,-0.334262 2.322844,-0.652952 2.322844,-0.652952 0,0 -1.051189,-0.66661 -2.39872,-1.290967 C 68.786609,82.641785 68.046178,82.339632 67.319002,82.116716 66.591826,81.8938 65.882468,81.74877 65.18617,81.7395 c -0.696412,-0.0091 -1.319123,-0.0215 -1.823076,-0.0781 -0.503953,-0.05661 -0.888936,-0.159697 -1.162946,-0.299057 -0.27401,-0.139359 -0.439706,-0.31319 -0.54058,-0.453279 -0.100875,-0.140088 -0.142159,-0.239455 -0.142159,-0.239455 0,0 0,0 0,0 z"
       id="path7130"
       inkscape:connector-curvature="0"
       style="fill:#ffffff;fill-opacity:1" /><path
       inkscape:original-d="m 53.923,79.356 c 0,0 -0.522,-3.585 5.222,-7.542 5.745,-3.956 9.052,-4.066 9.052,-4.066 0,0 -1.897,4.885 -6.521,7.745 -3.779,2.337 -7.753,3.863 -7.753,3.863 z"
       d="m 61.517409,80.669607 c 0,0 0.217592,-0.206401 0.614902,-0.528067 0.397311,-0.321665 0.977157,-0.755804 1.657119,-1.224377 0.679962,-0.468574 1.452042,-0.967211 2.226743,-1.49038 0.774701,-0.523169 1.537876,-1.074487 2.370839,-1.738587 0.832766,-0.663865 1.542281,-1.27413 2.170247,-1.763843 0.627965,-0.489713 1.16962,-0.862455 1.613437,-1.125728 0.887635,-0.526547 1.357805,-0.6143 1.357805,-0.6143 0,0 -0.808475,1.062397 -2.120011,2.437549 -0.655768,0.687576 -1.438686,1.453909 -2.297367,2.199568 -0.858681,0.745659 -1.797525,1.474027 -2.713346,2.050212 -0.748409,0.470818 -1.451211,0.863101 -2.066439,1.154065 -0.615227,0.290963 -1.142561,0.478999 -1.562484,0.58014 -0.839844,0.202282 -1.251445,0.06375 -1.251445,0.06375 z"
       id="path7132"
       inkscape:connector-curvature="0"
       style="fill:#ffffff;fill-opacity:1" /><path
       inkscape:original-d="m 62.147,76.818 c 0,0 3.538,-1.596 8.877,-1.596 5.342,0 9.365,2.775 9.365,2.775 0,0 -3.954,1.594 -9.642,1.594 -5.687,0.001 -8.6,-2.773 -8.6,-2.773 z"
       d="m 65.864774,79.964131 c 0,0 0.641768,-0.323309 1.772195,-0.724095 1.130427,-0.400787 2.782824,-0.902268 4.96632,-1.042301 2.184722,-0.140112 4.17802,0.406892 5.621796,0.99954 1.443776,0.592647 2.325226,1.209915 2.325226,1.209915 0,0 -0.996754,0.2865 -2.667897,0.576843 -0.835571,0.145172 -1.840175,0.294565 -2.962894,0.429421 -1.122719,0.134856 -2.366195,0.257714 -3.64421,0.336153 -1.277841,0.07863 -2.312959,0.03277 -3.099844,-0.102524 -0.786884,-0.135294 -1.324347,-0.36014 -1.669767,-0.608171 -0.69084,-0.496062 -0.640925,-1.074781 -0.640925,-1.074781 z"
       id="path7134"
       inkscape:connector-curvature="0"
       style="fill:#ffffff;fill-opacity:1" /><path
       inkscape:original-d="m 68.686,73.42 c 0,0 0.287,-3.87 2.835,-8.562 2.549,-4.694 6.907,-6.904 6.907,-6.904 0,0 -0.485,4.235 -3.198,9.233 -2.716,4.997 -6.544,6.233 -6.544,6.233 z"
       d="m 71.417525,76.862167 c 0,0 0.418214,-0.796062 1.298801,-2.110196 0.880586,-1.314135 2.220062,-3.149503 3.920758,-5.24331 1.701394,-2.094697 3.378784,-3.722636 4.688772,-4.809227 1.309987,-1.08659 2.238567,-1.638468 2.238567,-1.638468 0,0 -0.380723,0.979341 -1.213869,2.504925 -0.833147,1.525584 -2.127219,3.585873 -3.952317,5.764729 -1.826102,2.178474 -3.607318,3.52974 -4.897413,4.372293 -1.290095,0.842554 -2.083299,1.159254 -2.083299,1.159254 0,0 0,0 0,0 z"
       id="path7136"
       inkscape:connector-curvature="0"
       style="fill:#ffffff;fill-opacity:1" /><path
       inkscape:original-d="m 71.353,72.937 c 0,0 3.064,-2.38 8.257,-3.63 5.192,-1.251 9.752,0.504 9.752,0.504 0,0 -3.47,2.478 -8.999,3.81 -5.529,1.331 -9.01,-0.684 -9.01,-0.684 z"
       d="m 73.565401,76.307602 c 0,0 0.78001,-0.534225 2.147194,-1.209069 1.367184,-0.674843 3.332875,-1.472615 5.743935,-2.02036 2.410741,-0.548172 4.548776,-0.488197 6.095841,-0.395589 1.547065,0.09261 2.509769,0.248778 2.509769,0.248778 0,0 -0.848756,0.768287 -2.386966,1.608501 -0.769106,0.420106 -1.711125,0.85332 -2.798021,1.23587 -1.086896,0.38255 -2.319192,0.714695 -3.65497,0.976126 -1.335733,0.261219 -2.509861,0.347652 -3.499823,0.349298 -0.989962,0.0016 -1.794776,-0.08463 -2.414847,-0.200494 -1.240142,-0.231732 -1.742112,-0.593061 -1.742112,-0.593061 0,0 0,0 0,0 z"
       id="path7138"
       inkscape:connector-curvature="0"
       style="fill:#ffffff;fill-opacity:1" /><path
       inkscape:original-d="m 75.948,68.811 c 0,0 1.909,-3.378 6.214,-6.538 4.307,-3.16 9.19,-3.304 9.19,-3.304 0,0 -2.243,3.625 -6.828,6.991 -4.585,3.365 -8.576,2.851 -8.576,2.851 z"
       d="m 78.483919,72.695534 c 0,0 0.633527,-0.724672 1.804868,-1.813955 1.17134,-1.089284 2.883488,-2.52925 4.999677,-4.050085 1.0585,-0.760439 2.08191,-1.385734 3.01349,-1.927584 0.93158,-0.54185 1.770454,-1.003135 2.470175,-1.402642 1.399443,-0.799016 2.252463,-1.351685 2.252463,-1.351685 0,0 -0.482079,1.128785 -1.542071,2.697319 -1.059991,1.568533 -2.730359,3.522851 -5.030411,5.175218 -2.299951,1.651919 -4.365052,2.232788 -5.778493,2.496967 -1.413442,0.26418 -2.189698,0.176447 -2.189698,0.176447 0,0 0,0 0,0 z"
       id="path7140"
       inkscape:connector-curvature="0"
       style="fill:#ffffff;fill-opacity:1" /><path
       inkscape:original-d="m 80.512,61.863 c 0,0 -1.292,-3.459 -0.955,-8.528 0.338,-5.07 3.225,-8.714 3.225,-8.714 0,0 1.266,3.854 0.906,9.254 -0.359,5.397 -3.176,7.988 -3.176,7.988 z"
       d="m 84.068813,66.52532 c 0,0 -0.03372,-0.762172 0.15434,-2.113717 0.188054,-1.351545 0.613442,-3.293024 1.367958,-5.698125 0.754981,-2.4056 1.753644,-4.578404 2.538649,-6.159576 0.785005,-1.581171 1.379713,-2.565292 1.379713,-2.565292 0,0 0.260993,3.788525 -1.140502,8.957186 -0.700071,2.582857 -1.761158,4.487837 -2.665233,5.734201 -0.904076,1.246365 -1.634925,1.845323 -1.634925,1.845323 z"
       id="path7142"
       inkscape:connector-curvature="0"
       style="fill:#ffffff;fill-opacity:1" /><path
       inkscape:original-d="m 84.135,58.586 c 0,0 1.328,-3.078 4.735,-6.188 3.408,-3.111 7.591,-3.684 7.591,-3.684 0,0 -1.595,3.321 -5.223,6.633 -3.629,3.312 -7.103,3.239 -7.103,3.239 z"
       d="m 87.687109,63.329292 c 0,0 0.431176,-0.733496 1.228789,-1.915437 0.797613,-1.181941 1.969133,-2.792411 3.304503,-4.772347 0.667884,-0.990279 1.292845,-1.90827 1.832337,-2.779407 0.539491,-0.871138 0.992978,-1.697832 1.347871,-2.445027 0.709786,-1.494389 1.041921,-2.663288 1.041921,-2.663288 0,0 -0.112151,1.237882 -0.532017,3.143197 -0.419865,1.905315 -1.17901,4.451965 -2.54536,6.800772 -1.366675,2.349012 -2.849759,3.457567 -3.925894,4.024894 -1.076135,0.567327 -1.75215,0.606643 -1.75215,0.606643 z"
       id="path7144"
       inkscape:connector-curvature="0"
       style="fill:#ffffff;fill-opacity:1" /><path
       inkscape:original-d="m 86.188,51.764 c 0,0 0.163,-3.349 2.264,-7.457 2.101,-4.108 5.815,-6.112 5.815,-6.112 0,0 -0.327,3.668 -2.563,8.043 -2.236,4.376 -5.516,5.526 -5.516,5.526 z"
       d="m 90.533675,56.606067 c 0,0 0.183343,-0.811657 0.603837,-2.18769 0.420495,-1.376032 1.081967,-3.308887 1.922251,-5.646443 0.840284,-2.337556 1.685079,-4.391157 2.213343,-6.007015 0.528264,-1.615858 0.766211,-2.770676 0.766211,-2.770676 0,0 -0.04088,0.986917 -0.2206,2.693502 -0.179719,1.706586 -0.495498,4.148355 -1.2393,6.849233 -0.743847,2.701376 -1.757047,4.511511 -2.588774,5.592779 -0.831728,1.081268 -1.456968,1.47631 -1.456968,1.47631 0,0 0,0 0,0 z"
       id="path7146"
       inkscape:connector-curvature="0"
       style="fill:#ffffff;fill-opacity:1" /><path
       inkscape:original-d="m 87.624,41.772 c 0,0 -0.289,-3.34 1.239,-7.693 1.528,-4.354 4.94,-6.839 4.94,-6.839 0,0 0.17,3.679 -1.459,8.314 -1.626,4.638 -4.72,6.218 -4.72,6.218 z"
       d="m 92.87426,46.412428 c 0,0 0.0541,-0.83004 0.243118,-2.27273 0.18902,-1.44269 0.511114,-3.495572 0.988748,-5.97083 0.477653,-2.475782 1.074144,-4.643867 1.464311,-6.289091 0.390167,-1.645223 0.580166,-2.763152 0.580166,-2.763152 0,0 0.01218,0.92473 -0.0434,2.556647 -0.05558,1.631917 -0.16441,3.988374 -0.545217,6.761328 -0.380347,2.773752 -1.017126,4.834497 -1.60261,6.126001 -0.585484,1.291503 -1.085116,1.851827 -1.085116,1.851827 0,0 0,0 0,0 z"
       id="path7148"
       inkscape:connector-curvature="0"
       style="fill:#ffffff;fill-opacity:1" /><path
       inkscape:original-d="m 86.24,35.188 c 0,0 -1.533,-2.981 -1.771,-7.589 -0.236,-4.608 1.978,-8.201 1.978,-8.201 0,0 1.553,3.339 1.806,8.246 0.252,4.908 -2.013,7.544 -2.013,7.544 z"
       d="m 92.588818,39.848359 c 0,0 -0.185663,-0.725893 -0.427281,-2.098019 -0.241619,-1.372126 -0.550424,-3.397573 -0.841834,-5.967739 -0.290708,-2.570221 -0.280007,-4.945739 -0.138623,-6.655985 0.141385,-1.710245 0.406083,-2.761218 0.406083,-2.761218 0,0 0.512723,0.968153 1.029335,2.578099 0.516611,1.609945 1.008627,3.844775 1.174347,6.488346 0.165447,2.644201 -0.151808,4.746044 -0.490454,6.192204 -0.338645,1.44616 -0.711573,2.224312 -0.711573,2.224312 0,0 0,0 0,0 z"
       id="path7150"
       inkscape:connector-curvature="0"
       style="fill:#ffffff;fill-opacity:1" /><path
       inkscape:original-d="m 82.461,27.265 c 0,0 -1.997,-2.692 -2.979,-7.2 -0.982,-4.508 0.618,-8.414 0.618,-8.414 0,0 2.074,3.043 3.121,7.844 1.048,4.801 -0.76,7.77 -0.76,7.77 z"
       d="m 89.847445,31.482904 c 0,0 -0.4261,-0.74369 -1.138022,-2.172323 -0.711922,-1.428632 -1.721586,-3.546819 -3.047279,-6.316877 -1.325693,-2.770057 -2.39676,-5.444896 -3.052968,-7.407509 -0.656208,-1.962614 -0.871265,-3.203663 -0.871265,-3.203663 0,0 1.190604,1.065774 2.670839,2.861211 1.480236,1.795437 3.182489,4.300677 4.38279,7.187978 0.600376,1.443659 0.923668,2.716508 1.108273,3.826578 0.184606,1.11007 0.227695,2.056523 0.215031,2.829045 -0.02533,1.545045 -0.267399,2.39556 -0.267399,2.39556 0,0 0,0 0,0 z"
       id="path7152"
       inkscape:connector-curvature="0"
       style="fill:#ffffff;fill-opacity:1" /><path
       inkscape:original-d="m 86.016,47.467 c 0,0 -2.499,-2.236 -4.365,-6.456 -1.866,-4.22 -1.081,-8.368 -1.081,-8.368 0,0 2.643,2.566 4.631,7.059 1.987,4.494 0.815,7.765 0.815,7.765 z"
       d="m 91.143045,52.432888 c 0,0 -0.312412,-0.444481 -0.694557,-1.423584 -0.382145,-0.979103 -0.821264,-2.496409 -1.156987,-4.605395 -0.335723,-2.108986 -0.363516,-4.31615 -0.358473,-6.00111 0.005,-1.68496 0.07836,-2.840409 0.07836,-2.840409 0,0 0.456257,0.684975 1.022214,1.928393 0.565956,1.243417 1.218096,3.030074 1.612746,5.22041 0.394296,2.190919 0.258821,4.092392 0.03738,5.479745 -0.221437,1.387353 -0.540681,2.24195 -0.540681,2.24195 0,0 0,0 0,0 z"
       id="path7154"
       inkscape:connector-curvature="0"
       style="fill:#ffffff;fill-opacity:1" /><path
       inkscape:original-d="m 83.255,32.384 c 0,0 -3.191,-1.027 -6.613,-4.121 -3.424,-3.094 -4.394,-7.202 -4.394,-7.202 0,0 3.457,1.268 7.103,4.563 3.644,3.295 3.904,6.76 3.904,6.76 z"
       d="m 90.75307,37.140362 c 0,0 -0.524832,-0.224429 -1.364748,-0.885345 C 88.548405,35.5941 87.403719,34.495373 86.158783,32.802049 85.53604,31.955414 84.985718,31.026204 84.472198,30.100368 83.958679,29.174532 83.480596,28.251696 83.049507,27.427844 82.18733,25.78014 81.513688,24.527858 81.513688,24.527858 c 0,0 0.454329,0.284706 1.475191,1.083217 0.51043,0.399256 1.160874,0.92771 1.904774,1.598834 0.7439,0.671124 1.578971,1.484788 2.41429,2.433864 0.834965,0.949085 1.476842,1.89697 1.955296,2.777457 0.478455,0.880487 0.797892,1.695514 1.015134,2.392807 0.434484,1.394588 0.474697,2.326325 0.474697,2.326325 0,0 0,0 0,0 z"
       id="path7156"
       inkscape:connector-curvature="0"
       style="fill:#ffffff;fill-opacity:1" /><path
       inkscape:original-d="m 78.538,23.153 c 0,0 -3.019,-1.458 -5.982,-4.992 -2.964,-3.536 -3.361,-7.739 -3.361,-7.739 0,0 3.252,1.731 6.408,5.497 3.156,3.765 2.935,7.234 2.935,7.234 z"
       d="m 86.03728,26.728503 c 0,0 -0.670673,-0.431326 -1.765435,-1.382791 -0.547381,-0.475732 -1.200697,-1.081014 -1.94512,-1.828594 -0.744423,-0.747579 -1.577756,-1.636928 -2.52418,-2.689568 -0.946884,-1.053255 -1.888358,-2.176725 -2.835979,-3.284561 -0.947621,-1.107837 -1.900695,-2.199837 -2.777006,-3.169971 -1.752624,-1.940268 -3.172518,-3.391233 -3.172518,-3.391233 0,0 0.780157,0.434075 2.406966,1.513525 0.813404,0.539725 1.833291,1.241601 2.987343,2.11581 1.154053,0.874209 2.439446,1.92065 3.733085,3.127578 1.293463,1.206602 2.318116,2.383318 3.109187,3.456654 0.791071,1.073336 1.354232,2.045366 1.760371,2.864016 0.812279,1.6373 1.023286,2.669135 1.023286,2.669135 z"
       id="path7158"
       inkscape:connector-curvature="0"
       style="fill:#ffffff;fill-opacity:1" /></g><path
     sodipodi:type="star"
     style="fill:#ffffff;fill-opacity:1;fill-rule:nonzero;stroke:none"
     id="path7160"
     sodipodi:sides="5"
     sodipodi:cx="18.644068"
     sodipodi:cy="-13.135593"
     sodipodi:r1="33.645775"
     sodipodi:r2="14.869382"
     sodipodi:arg1="0.93737044"
     sodipodi:arg2="1.5482836"
     inkscape:flatsided="false"
     inkscape:rounded="0"
     inkscape:randomized="0"
     d="M 38.559322,13.98305 18.97879,1.7300206 -0.99314291,14.18506 4.6094635,-8.2235265 -13.40765,-23.369144 l 23.0431333,-1.596239 8.8367447,-21.815546 8.638833,21.422057 23.478521,1.662868 -17.70404,14.8357983 z"
     inkscape:transform-center-x="-0.2105356"
     inkscape:transform-center-y="-0.90048955"
     transform="matrix(0.86757902,0,0,0.88184576,25.723984,47.50818)" /></svg>