<?xml version="1.0" encoding="UTF-8" standalone="no"?>
<!-- Created with Inkscape (http://www.inkscape.org/) -->

<svg
   xmlns:dc="http://purl.org/dc/elements/1.1/"
   xmlns:cc="http://creativecommons.org/ns#"
   xmlns:rdf="http://www.w3.org/1999/02/22-rdf-syntax-ns#"
   xmlns:svg="http://www.w3.org/2000/svg"
   xmlns="http://www.w3.org/2000/svg"
   xmlns:xlink="http://www.w3.org/1999/xlink"
   xmlns:sodipodi="http://sodipodi.sourceforge.net/DTD/sodipodi-0.dtd"
   xmlns:inkscape="http://www.inkscape.org/namespaces/inkscape"
   version="1.1"
   width="100%"
   height="100%"
   viewBox="0 0 146.33944 159.572"
   id="svg6643"
   xml:space="preserve"
   inkscape:version="0.48.5 r10040"
   sodipodi:docname="Sell.svg"><sodipodi:namedview
     pagecolor="#ffffff"
     bordercolor="#666666"
     borderopacity="1"
     objecttolerance="10"
     gridtolerance="10"
     guidetolerance="10"
     inkscape:pageopacity="0"
     inkscape:pageshadow="2"
     inkscape:window-width="816"
     inkscape:window-height="688"
     id="namedview3923"
     showgrid="false"
     fit-margin-top="0"
     fit-margin-left="0"
     fit-margin-right="0"
     fit-margin-bottom="0"
     inkscape:zoom="2.36"
     inkscape:cx="96.261613"
     inkscape:cy="77.569788"
     inkscape:window-x="897"
     inkscape:window-y="300"
     inkscape:window-maximized="0"
     inkscape:current-layer="svg6643"
     showguides="true"
     inkscape:guide-bbox="true" /><metadata
     id="metadata6651"><rdf:RDF><cc:Work
         rdf:about=""><dc:format>image/svg+xml</dc:format><dc:type
           rdf:resource="http://purl.org/dc/dcmitype/StillImage" /><dc:title></dc:title></cc:Work></rdf:RDF></metadata><defs
     id="defs6649"><inkscape:perspective
       sodipodi:type="inkscape:persp3d"
       inkscape:vp_x="-31.240281 : 51.941326 : 1"
       inkscape:vp_y="0 : 1000 : 0"
       inkscape:vp_z="94.834099 : 62.038113 : 1"
       inkscape:persp3d-origin="109.78217 : 42.95257 : 1"
       id="perspective5315" /><linearGradient
       id="linearGradient7161"><stop
         id="stop7163"
         style="stop-color:#a76f37;stop-opacity:1"
         offset="0" /><stop
         id="stop7169"
         style="stop-color:#a76f37;stop-opacity:1"
         offset="0.34" /><stop
         id="stop7171"
         style="stop-color:#ffffff;stop-opacity:1"
         offset="0.34" /><stop
         id="stop7173"
         style="stop-color:#ffffff;stop-opacity:1"
         offset="0.67000002" /><stop
         id="stop7175"
         style="stop-color:#e63f7d;stop-opacity:1"
         offset="0.67000002" /><stop
         id="stop7165"
         style="stop-color:#e63f7d;stop-opacity:1"
         offset="1" /></linearGradient><linearGradient
       x1="-0.99949408"
       y1="49.999996"
       x2="100.99952"
       y2="49.999996"
       id="linearGradient7167"
       xlink:href="#linearGradient7161"
       gradientUnits="userSpaceOnUse" /><linearGradient
       inkscape:collect="always"
       xlink:href="#linearGradient7161"
       id="linearGradient4482"
       gradientUnits="userSpaceOnUse"
       x1="-0.99949408"
       y1="49.999996"
       x2="100.99952"
       y2="49.999996" /></defs><g
     id="g6026"
     transform="translate(-44.320385,20.932258)" /><g
     id="g6160"><path
       sodipodi:nodetypes="sssscccsss"
       inkscape:connector-curvature="0"
       id="rect4484"
       transform="translate(-2.7949595e-6,0)"
       d="M 4.65625,38.375 C 2.9113183,38.375 1.5,39.786318 1.5,41.53125 l 0,58.9375 c 0,1.74493 1.4113183,3.15625 3.15625,3.15625 l 39.4375,0 0.125,-34.15625 4.3125,-1.59375 0,-26.34375 c 0,-1.744932 -1.411318,-3.15625 -3.15625,-3.15625 z"
       style="fill:none;stroke:#5c1201;stroke-width:3.00668836;stroke-linecap:round;stroke-linejoin:miter;stroke-miterlimit:4;stroke-opacity:1" /><rect
       ry="1.1023936"
       y="47.690094"
       x="6.65663"
       height="2.2047873"
       width="18.68066"
       id="rect4486"
       style="fill:#5c1201;fill-opacity:1;fill-rule:nonzero;stroke:none" /><rect
       ry="1.1023936"
       y="58.792774"
       x="6.65663"
       height="2.2047873"
       width="36.878201"
       id="rect4490"
       style="fill:#5c1201;fill-opacity:1;fill-rule:nonzero;stroke:none" /><rect
       style="fill:#5c1201;fill-opacity:1;fill-rule:nonzero;stroke:none"
       id="rect4496"
       width="18.68066"
       height="2.2047873"
       x="6.65663"
       y="92.100807"
       ry="1.1023936" /><rect
       style="fill:#5c1201;fill-opacity:1;fill-rule:nonzero;stroke:none"
       id="rect4498"
       width="36.878201"
       height="2.2047873"
       x="6.65663"
       y="64.344109"
       ry="1.1023936" /><rect
       ry="1.1023936"
       y="69.895454"
       x="6.65663"
       height="2.2047873"
       width="36.878201"
       id="rect4500"
       style="fill:#5c1201;fill-opacity:1;fill-rule:nonzero;stroke:none" /><rect
       style="fill:#5c1201;fill-opacity:1;fill-rule:nonzero;stroke:none"
       id="rect4502"
       width="36.878201"
       height="2.2047873"
       x="6.65663"
       y="75.446793"
       ry="1.1023936" /><rect
       ry="1.1023936"
       y="80.998131"
       x="6.65663"
       height="2.2047873"
       width="36.878201"
       id="rect4504"
       style="fill:#5c1201;fill-opacity:1;fill-rule:nonzero;stroke:none" /><rect
       style="fill:#5c1201;fill-opacity:1;fill-rule:nonzero;stroke:none"
       id="rect4506"
       width="36.878201"
       height="2.2047873"
       x="6.65663"
       y="86.549469"
       ry="1.1023936" /><rect
       style="fill:#5c1201;fill-opacity:1;fill-rule:nonzero;stroke:none"
       id="rect4508"
       width="36.878201"
       height="2.2047873"
       x="6.65663"
       y="53.241432"
       ry="1.1023936" /><path
       style="fill:#5c1201;fill-opacity:1;fill-rule:nonzero;stroke:none"
       d="M 97.46875 0 L 75.1875 29.78125 L 83.59375 29.8125 L 83.59375 55.09375 L 98.90625 49.375 L 111.15625 57.96875 L 111.15625 29.84375 L 119.5625 29.875 L 97.46875 0 z M 95.96875 13.96875 L 98.03125 13.96875 L 98.03125 15.46875 C 100.07551 15.640939 101.67707 16.147506 102.875 17.03125 C 104.41144 18.156071 105.34373 19.724864 105.65625 21.6875 L 102.03125 22.15625 C 101.8229 20.939652 101.37629 20.023502 100.71875 19.375 C 100.06118 18.726542 99.17707 18.300369 98.03125 18.09375 L 98.03125 27 C 99.80207 27.39025 100.95832 27.719441 101.53125 27.9375 C 102.62498 28.362182 103.52863 28.860454 104.21875 29.46875 C 104.90884 30.077071 105.44139 30.818401 105.8125 31.65625 C 106.18357 32.494119 106.37498 33.399418 106.375 34.375 C 106.37498 36.521303 105.58071 38.315312 104.03125 39.75 C 102.48175 41.184692 100.49217 41.927952 98.03125 42.03125 L 98.03125 45.1875 L 95.96875 45.1875 L 95.96875 42.0625 C 94.210929 41.867382 92.756504 41.530523 91.65625 41.03125 C 90.555985 40.531978 89.613278 39.738322 88.8125 38.625 C 88.011717 37.511684 87.536457 36.13811 87.40625 34.53125 L 90.96875 33.9375 C 91.242182 35.601748 91.71614 36.844533 92.40625 37.625 C 93.395826 38.726846 94.588533 39.342499 95.96875 39.46875 L 95.96875 29.59375 C 94.523429 29.352734 93.04166 28.871052 91.53125 28.125 C 90.411454 27.574093 89.542965 26.788105 88.9375 25.8125 C 88.332029 24.836927 88.031248 23.739591 88.03125 22.5 C 88.031248 20.296336 88.916664 18.522099 90.6875 17.15625 C 91.87239 16.238073 93.638013 15.675371 95.96875 15.46875 L 95.96875 13.96875 z M 95.96875 18.03125 C 94.601554 18.214914 93.506503 18.719551 92.71875 19.5 C 91.930984 20.280493 91.531244 21.18261 91.53125 22.25 C 91.531244 23.305951 91.860671 24.194661 92.53125 24.90625 C 93.201816 25.617873 94.367179 26.200347 95.96875 26.625 L 95.96875 18.03125 z M 98.03125 30.03125 L 98.03125 39.46875 C 99.398424 39.319544 100.51431 38.8015 101.40625 37.90625 C 102.29816 37.011007 102.74998 35.882422 102.75 34.5625 C 102.74998 33.43771 102.44399 32.557922 101.8125 31.875 C 101.18097 31.192097 99.919257 30.570705 98.03125 30.03125 z "
       transform="translate(-2.7949595e-6,0)"
       id="path6057" /><path
       style="fill:#5c1201;fill-opacity:1;stroke:none"
       d="m 98.895688,49.065745 -54.687499,20.40625 -0.1875,56.218755 46.468749,33.53125 55.093752,-21.03125 0.40625,-56.031255 -47.093752,-33.09375 z m 0.125,4.21875 40.250002,28.8125 -22.4375,8.5 -39.406252,-29.25 21.59375,-8.0625 z m -27.3125,9.96875 39.625002,29.25 -20.562502,7.812495 -39.624999,-29.218745 20.562499,-7.84375 z m -24.156249,11.21875 40.031249,29.687495 0,47.90626 -39.812499,-28.75 -0.21875,-48.843755 z m 92.781251,11.875 0,48.312505 -47.437502,17.78125 -0.21875,-47.87501 47.656252,-18.218745 z"
       id="path3952"
       inkscape:connector-curvature="0" /><rect
       transform="matrix(0.806405,0.59136366,0,1,0,0)"
       y="46.496719"
       x="89.399216"
       height="12.288136"
       width="15.763623"
       id="rect6030"
       style="fill:#5c1201;fill-opacity:1;fill-rule:nonzero;stroke:none" /><rect
       style="fill:#5c1201;fill-opacity:1;fill-rule:nonzero;stroke:none"
       id="rect6032"
       width="15.763623"
       height="12.288136"
       x="89.13649"
       y="64.119888"
       transform="matrix(0.806405,0.59136366,0,1,0,0)" /></g></svg>