<?xml version="1.0" encoding="UTF-8" standalone="no"?>
<!-- Created with Inkscape (http://www.inkscape.org/) -->

<svg
   xmlns:dc="http://purl.org/dc/elements/1.1/"
   xmlns:cc="http://creativecommons.org/ns#"
   xmlns:rdf="http://www.w3.org/1999/02/22-rdf-syntax-ns#"
   xmlns:svg="http://www.w3.org/2000/svg"
   xmlns="http://www.w3.org/2000/svg"
   version="1.1"
   width="251"
   height="121.03125"
   id="svg2">
  <defs
     id="defs4" />
  <metadata
     id="metadata7">
    <rdf:RDF>
      <cc:Work
         rdf:about="">
        <dc:format>image/svg+xml</dc:format>
        <dc:type
           rdf:resource="http://purl.org/dc/dcmitype/StillImage" />
        <dc:title></dc:title>
      </cc:Work>
    </rdf:RDF>
  </metadata>
  <g
     transform="translate(-118.0625,-124.6875)"
     id="layer1"
     style="display:inline">
    <path
       d="m 139.07143,125.70089 c -1.03897,0 -2.06714,0.0676 -3.0625,0.21875 -0.33179,0.0504 -0.67388,0.12113 -1,0.1875 -1.94577,0.39907 -3.80796,1.08326 -5.5,2 -0.56687,0.30713 -1.12443,0.64134 -1.65625,1 -1.05583,0.71397 -2.03966,1.53966 -2.9375,2.4375 -0.90368,0.90368 -1.72018,1.9051 -2.4375,2.96875 -0.71732,1.06365 -1.33916,2.17776 -1.84375,3.375 -0.50459,1.19724 -0.89076,2.47679 -1.15625,3.78125 -0.13274,0.65223 -0.24448,1.29466 -0.3125,1.96875 -0.068,0.67409 -0.0937,1.36985 -0.0937,2.0625 l 0,19.96875 c 10.57271,0.26812 19.0625,8.92518 19.0625,19.5625 0,10.63765 -8.48934,19.29489 -19.0625,19.5625 l 0,19.9375 c 0,0.69265 0.0257,1.38841 0.0937,2.0625 0.068,0.67409 0.17976,1.31652 0.3125,1.96875 0.26549,1.30446 0.65166,2.58401 1.15625,3.78125 0.50459,1.19724 1.12643,2.31135 1.84375,3.375 0.71732,1.06365 1.53382,2.06507 2.4375,2.96875 0.45184,0.45184 0.91277,0.87435 1.40625,1.28125 0.49348,0.4069 0.99943,0.79759 1.53125,1.15625 1.60092,1.08256 3.36067,1.91499 5.25,2.5 0.62707,0.19417 1.25402,0.36726 1.90625,0.5 1.31361,0.26941 2.66673,0.40625 4.0625,0.40625 l 209,0 c 7.61916,0 14.21534,-4.20191 17.59375,-10.4375 0.61426,-1.13374 1.11166,-2.3396 1.5,-3.59375 0.19417,-0.62707 0.36726,-1.28527 0.5,-1.9375 0.19911,-0.97835 0.32337,-1.97433 0.375,-3 0.0172,-0.34189 0.0312,-0.68493 0.0312,-1.03125 l 0,-19.9375 c -10.57317,-0.26761 -19.0625,-8.92485 -19.0625,-19.5625 0,-10.63732 8.48978,-19.29438 19.0625,-19.5625 l 0,-19.96875 c 0,-0.34632 -0.014,-0.68936 -0.0312,-1.03125 -0.0516,-1.02567 -0.17589,-2.02165 -0.375,-3 -0.13274,-0.65223 -0.30583,-1.31043 -0.5,-1.9375 -0.38834,-1.25415 -0.88574,-2.46001 -1.5,-3.59375 -3.22484,-5.95215 -9.38279,-10.04482 -16.5625,-10.40625 -0.34189,-0.0172 -0.68493,-0.0312 -1.03125,-0.0312 l -209,0 z"
       id="rect2991"
       style="fill:#ffffff;fill-opacity:1;stroke:#5c1201;stroke-width:3;stroke-miterlimit:4;stroke-opacity:1;stroke-dasharray:none" />
  </g>
</svg>
